<svg width="572" height="572" viewBox="0 0 572 572" fill="none" xmlns="http://www.w3.org/2000/svg">
<path d="M548.258 465.665C558.356 475.774 561.724 490.797 556.907 504.248C556.433 505.572 555.883 506.867 555.259 508.128C550.551 517.632 541.99 524.658 531.749 527.422C530.276 527.823 528.778 528.128 527.265 528.336C525.582 528.568 523.885 528.684 522.186 528.683H59.9933C51.3929 528.692 43.0617 525.685 36.4498 520.185C35.5641 519.456 34.7158 518.685 33.9049 517.87C33.4508 517.416 33.0023 516.951 32.5707 516.469C32.0102 515.858 31.4888 515.23 30.9843 514.58C29.4031 512.578 28.0371 510.415 26.9091 508.128C26.7577 507.825 26.612 507.522 26.4718 507.214C26.0234 506.242 25.6198 505.254 25.261 504.248C20.945 492.295 23.0932 478.96 30.9451 468.967C31.4496 468.317 31.9821 467.689 32.5315 467.078C39.5234 459.286 49.5021 454.84 59.9709 454.852H108.101C108.706 454.852 109.306 454.83 109.9 454.785C111.425 454.676 112.936 454.42 114.412 454.022C115.701 453.678 116.957 453.224 118.168 452.666C120.799 451.459 123.194 449.795 125.243 447.75C129.803 443.218 132.367 437.054 132.367 430.625C132.369 429.707 132.316 428.79 132.21 427.878C131.08 417.997 124.035 409.806 114.435 407.21C112.958 406.813 111.447 406.558 109.922 406.448C109.328 406.403 108.728 406.38 108.123 406.38H100.567C96.3586 406.384 92.1634 405.914 88.0606 404.979H88.0213L87.7354 404.912C87.4215 404.844 87.1132 404.766 86.8049 404.687L86.3452 404.57C85.9416 404.463 85.538 404.357 85.14 404.239C84.742 404.121 84.4674 404.043 84.1366 403.936C81.6202 403.171 79.1622 402.225 76.7821 401.105C76.2552 400.859 75.7282 400.607 75.2125 400.337C74.3605 399.906 73.5308 399.457 72.7012 398.981C71.1503 398.095 69.6555 397.135 68.2167 396.1C67.0059 395.242 65.8344 394.334 64.6964 393.387C63.3959 392.307 62.1477 391.167 60.9519 389.967C51.156 380.217 45.3239 367.181 44.5835 353.379C44.5611 352.965 44.5443 352.55 44.5331 352.135C44.5331 351.524 44.4994 350.907 44.4994 350.296C44.4994 350.027 44.4994 349.736 44.4994 349.495C44.5298 347.245 44.6945 344.998 44.9927 342.768C47.0697 327.352 55.4698 313.497 68.1775 304.527C69.5527 303.547 70.9709 302.634 72.4321 301.785C72.5162 301.735 72.6003 301.685 72.69 301.64C75.2036 300.191 77.8277 298.942 80.5378 297.906C81.715 297.452 82.909 297.043 84.1198 296.668C85.3306 296.292 86.6928 295.933 88.0045 295.636C92.1197 294.694 96.3282 294.22 100.55 294.223H141.841C146.966 294.22 151.964 292.628 156.146 289.666C157.276 288.861 158.338 287.962 159.319 286.981C163.606 282.701 166.168 276.992 166.517 270.943C166.545 270.467 166.561 269.985 166.561 269.497C166.559 261.993 163.151 254.896 157.295 250.203C156.92 249.9 156.539 249.642 156.146 249.339C154.738 248.332 153.225 247.481 151.634 246.8C151.247 246.626 150.854 246.469 150.456 246.324C147.701 245.295 144.782 244.771 141.841 244.776H66.4173C59.4491 244.794 52.5336 243.567 45.9961 241.155C43.6915 240.302 41.4445 239.3 39.2694 238.156C38.3053 237.652 37.3579 237.123 36.4274 236.57C35.1007 235.781 33.8077 234.941 32.5483 234.047C31.9877 233.666 31.4832 233.279 30.9619 232.881C29.4017 231.692 27.9048 230.421 26.4774 229.075C25.9729 228.61 25.4796 228.133 24.9919 227.646C17.0242 219.699 11.518 209.623 9.1337 198.626C9.06644 198.33 9.00478 198.033 8.94872 197.734C8.74692 196.748 8.57314 195.756 8.4274 194.746C8.01248 191.906 7.80453 189.04 7.80518 186.17C7.80518 185.946 7.80518 185.721 7.80518 185.497C7.9365 172.141 12.6457 159.234 21.1465 148.932C21.6734 148.293 22.2172 147.659 22.7721 147.043C23.4784 146.247 24.2128 145.473 24.9639 144.722C25.4516 144.234 25.9449 143.758 26.4494 143.293L26.5951 143.158C27.0156 142.766 27.436 142.385 27.8676 142.009C28.8692 141.131 29.9006 140.29 30.9619 139.486C31.4832 139.088 32.0102 138.702 32.5483 138.321C33.0864 137.939 33.5237 137.642 34.017 137.312C34.8074 136.785 35.609 136.274 36.4274 135.792L36.8254 135.557C37.627 135.086 38.4454 134.632 39.2694 134.206C41.4435 133.062 43.6906 132.062 45.9961 131.213C52.5296 128.781 59.4462 127.542 66.4173 127.552C67.0091 127.552 67.6003 127.52 68.1887 127.457C69.7319 127.29 71.2425 126.899 72.6732 126.297C76.5735 124.683 79.6989 121.624 81.3955 117.759C82.0595 116.243 82.4868 114.634 82.6624 112.989C82.7207 112.473 82.7506 111.955 82.7521 111.436C82.7521 111.363 82.7521 111.29 82.7521 111.217V99.5522C82.7492 96.8514 83.1382 94.1645 83.9068 91.5754C83.9797 91.3344 84.0526 91.0933 84.131 90.8579C87.599 80.2117 97.0826 72.6601 108.235 71.6643C108.796 71.6139 109.356 71.5802 109.917 71.5634H110.752H274.996C275.618 71.5634 276.229 71.5634 276.84 71.6251C278.36 71.7188 279.87 71.9401 281.353 72.2866C286.24 73.4257 290.73 75.8597 294.352 79.3328C294.504 79.4729 294.649 79.6187 294.795 79.7644C299.823 84.7817 302.748 91.5278 302.974 98.6273V99.5634C302.974 99.5634 302.974 100.124 302.974 100.359C303.011 101.675 303.142 102.986 303.366 104.283C303.411 104.558 303.467 104.844 303.517 105.107C303.624 105.629 303.747 106.15 303.876 106.66C304.307 108.3 304.887 109.896 305.608 111.43C305.855 111.957 306.118 112.479 306.393 112.983C306.522 113.224 306.657 113.46 306.797 113.695C307.637 115.132 308.605 116.491 309.689 117.754C310.488 118.689 311.35 119.569 312.268 120.388C312.677 120.758 313.097 121.111 313.523 121.459C315.087 122.697 316.778 123.765 318.568 124.643C318.922 124.822 319.28 124.99 319.645 125.153C323.217 126.738 327.083 127.553 330.99 127.547H412.916C414.525 127.547 416.112 127.631 417.681 127.788C423.347 128.364 428.858 129.981 433.937 132.558C437.479 134.358 440.777 136.602 443.753 139.234C444.022 139.475 444.285 139.711 444.549 139.957C444.812 140.204 444.992 140.367 445.205 140.58C445.692 141.045 446.163 141.516 446.612 142.003C446.791 142.177 446.953 142.357 447.116 142.564C447.139 142.578 447.158 142.597 447.172 142.62C447.346 142.805 447.514 142.99 447.671 143.181C447.828 143.371 448.075 143.629 448.265 143.859C448.545 144.178 448.826 144.504 449.084 144.834C449.285 145.075 449.482 145.322 449.644 145.574C449.807 145.826 450.02 146.056 450.205 146.303C450.39 146.55 450.586 146.807 450.765 147.065C450.848 147.17 450.926 147.276 451.001 147.385C451.365 147.9 451.718 148.422 452.06 148.954C452.284 149.308 452.509 149.661 452.727 150.019C453.108 150.647 453.473 151.286 453.848 151.931C454.353 152.865 454.827 153.818 455.272 154.79C455.672 155.653 456.046 156.531 456.393 157.424C456.996 158.983 457.511 160.573 457.935 162.189C458.17 163.058 458.378 163.938 458.557 164.824C458.88 166.4 459.118 167.992 459.269 169.594C459.42 171.112 459.495 172.637 459.493 174.163V212.455C459.49 220.557 462.708 228.328 468.439 234.056C474.169 239.785 481.941 243 490.044 242.994H536.643C541.241 242.996 545.765 244.153 549.799 246.357C551.761 247.428 553.586 248.73 555.237 250.236C555.545 250.517 555.848 250.797 556.139 251.1C556.824 251.785 557.473 252.506 558.085 253.258C566.261 263.373 566.261 277.825 558.085 287.94C557.473 288.692 556.824 289.412 556.139 290.098C551.852 294.4 546.259 297.16 540.236 297.946C539.045 298.103 537.845 298.182 536.643 298.181C534.995 298.182 533.355 298.416 531.772 298.876C530.184 299.344 528.674 300.041 527.287 300.945C526.856 301.219 526.441 301.505 526.037 301.825C521.82 305.104 519.356 310.149 519.361 315.491V370.835C519.375 379.064 516.521 387.041 511.289 393.392C510.553 394.295 509.771 395.159 508.946 395.982C507.323 397.606 505.545 399.066 503.637 400.343C503.251 400.612 502.858 400.864 502.46 401.111C501.9 401.459 501.339 401.789 500.739 402.103L499.921 402.535C499.852 402.575 499.781 402.61 499.708 402.641C499.433 402.782 499.147 402.916 498.878 403.045C498.848 403.067 498.814 403.082 498.777 403.09C498.469 403.236 498.161 403.376 497.852 403.505C497.544 403.634 497.191 403.785 496.86 403.914C495.828 404.329 494.774 404.69 493.704 404.996C492.509 405.344 491.297 405.628 490.072 405.848C488.58 406.11 487.073 406.279 485.559 406.352C484.999 406.38 484.388 406.397 483.799 406.397C471.467 406.392 461.095 415.642 459.695 427.895C459.589 428.806 459.536 429.723 459.538 430.641C459.537 437.073 462.091 443.241 466.639 447.788C471.188 452.335 477.357 454.889 483.788 454.886H522.198C523.897 454.884 525.594 455.002 527.276 455.239C528.789 455.444 530.287 455.748 531.761 456.147C532.26 456.281 532.753 456.427 533.246 456.578C538.908 458.355 544.058 461.472 548.258 465.665Z" fill="#ECF3FE"/>
<path d="M30.9452 139.486V232.853C29.385 231.664 27.8881 230.393 26.4607 229.047V143.281L26.6064 143.147C27.0269 142.754 27.4473 142.373 27.8789 141.998C28.8804 141.127 29.9025 140.29 30.9452 139.486Z" fill="#E2E6FF"/>
<path d="M26.4606 476.332C27.6608 473.71 29.166 471.237 30.9451 468.967V514.579C29.3639 512.578 27.9979 510.415 26.8699 508.127C26.7185 507.825 26.5728 507.522 26.4326 507.214L26.4606 476.332Z" fill="#E2E6FF"/>
<path d="M72.7013 126.296V244.782H68.2168V127.457C69.76 127.29 71.2706 126.899 72.7013 126.296V126.296Z" fill="#E2E6FF"/>
<path d="M72.4266 301.791C72.5107 301.741 72.5947 301.69 72.6844 301.645V398.953C71.1335 398.067 69.6387 397.107 68.2 396.072V304.532C69.5677 303.549 70.9766 302.636 72.4266 301.791Z" fill="#E2E6FF"/>
<path d="M68.1887 454.852H72.7012V528.683H68.1887V454.852Z" fill="#E2E6FF"/>
<path d="M114.435 71.5522V244.765H109.922V71.5522H110.758H114.435Z" fill="#E2E6FF"/>
<path d="M109.922 294.229H114.435V407.193C112.958 406.796 111.447 406.541 109.922 406.431L109.922 294.229Z" fill="#E2E6FF"/>
<path d="M109.922 454.785C111.447 454.676 112.959 454.42 114.435 454.022V528.683H109.922V454.785Z" fill="#E2E6FF"/>
<path d="M156.163 71.5522V249.345C154.755 248.338 153.242 247.486 151.651 246.806V71.5522L156.163 71.5522Z" fill="#E2E6FF"/>
<path d="M151.651 292.205C153.24 291.522 154.752 290.673 156.163 289.672V528.683H151.651V292.205Z" fill="#E2E6FF"/>
<path d="M193.384 71.5522H197.897V528.683H193.384V71.5522Z" fill="#E2E6FF"/>
<path d="M235.118 71.5522H239.63V528.683H235.118V71.5522Z" fill="#E2E6FF"/>
<path d="M281.358 72.2753V528.683H276.846V71.6138C278.366 71.7076 279.875 71.9288 281.358 72.2753Z" fill="#E2E6FF"/>
<path d="M323.092 126.42V528.683H318.608V124.648C318.961 124.828 319.32 124.996 319.684 125.159C320.791 125.653 321.93 126.075 323.092 126.42Z" fill="#E2E6FF"/>
<path d="M360.313 127.552H364.826V528.683H360.313V127.552Z" fill="#E2E6FF"/>
<path d="M402.042 127.552H406.554V528.683H402.042V127.552Z" fill="#E2E6FF"/>
<path d="M448.288 143.836V528.683H443.803V139.24C444.072 139.481 444.336 139.716 444.599 139.963C444.863 140.21 445.042 140.372 445.255 140.585C445.743 141.05 446.214 141.521 446.662 142.009C446.841 142.183 447.004 142.362 447.167 142.57C447.189 142.584 447.209 142.603 447.223 142.626C447.396 142.811 447.565 142.996 447.722 143.186C447.878 143.377 448.097 143.618 448.288 143.836Z" fill="#E2E6FF"/>
<path d="M490.044 242.994V405.814C488.552 406.077 487.044 406.245 485.531 406.319V242.635C487.025 242.866 488.533 242.985 490.044 242.994Z" fill="#E2E6FF"/>
<path d="M485.509 454.852H490.021V528.683H485.509V454.852Z" fill="#E2E6FF"/>
<path d="M531.749 242.994V298.842C530.162 299.31 528.651 300.007 527.265 300.911V242.994L531.749 242.994Z" fill="#E2E6FF"/>
<path d="M531.749 456.113V527.422C530.276 527.823 528.778 528.128 527.265 528.336V455.205C528.778 455.41 530.276 455.714 531.749 456.113Z" fill="#E2E6FF"/>
<rect x="91.2053" y="538.779" width="41.5151" height="9.87146" rx="4.93573" transform="rotate(-180 91.2053 538.779)" fill="#7986BF"/>
<rect x="549.239" y="538.779" width="454.02" height="9.87146" rx="4.93573" transform="rotate(-180 549.239 538.779)" fill="#7986BF"/>
<path d="M124.704 102.904H150.546C151.236 102.9 151.9 103.172 152.388 103.659C152.877 104.147 153.15 104.809 153.147 105.5V167.408H124.704V102.904Z" fill="#6675AD"/>
<path d="M122.877 102.904H148.719V167.408H120.27V105.5C120.27 104.814 120.543 104.157 121.027 103.672C121.512 103.188 122.169 102.915 122.854 102.915L122.877 102.904Z" fill="#7986BF"/>
<circle cx="134.094" cy="122.821" r="6.82762" fill="#6675AD"/>
<circle cx="134.094" cy="122.821" r="3.0999" fill="#F3F4FE"/>
<circle cx="134.094" cy="154.532" r="11.0991" fill="#6675AD"/>
<circle cx="134.094" cy="154.532" r="5.03383" fill="#F3F4FE"/>
<path d="M180.413 102.904H206.255C207.682 102.904 208.839 104.061 208.839 105.488V167.408H180.413V102.904Z" fill="#6675AD"/>
<path d="M178.563 102.904H204.405V167.408H175.979V105.5C175.976 104.812 176.247 104.152 176.732 103.665C177.217 103.178 177.876 102.904 178.563 102.904V102.904Z" fill="#7986BF"/>
<circle cx="189.802" cy="122.821" r="6.82762" fill="#6675AD"/>
<circle cx="189.802" cy="122.821" r="3.0999" fill="#F3F4FE"/>
<circle cx="189.802" cy="154.532" r="11.0991" fill="#6675AD"/>
<circle cx="189.802" cy="154.532" r="5.03383" fill="#F3F4FE"/>
<path d="M80.3584 180.34H248.263L237.209 167.408H91.4182L80.3584 180.34Z" fill="#D2D6FA"/>
<path d="M216.815 180.334V197.689L205.032 205.98V180.334H216.815Z" fill="#D2D6FA"/>
<path d="M126.453 180.334V205.98L114.67 197.689V180.334H126.453Z" fill="#D2D6FA"/>
<path d="M114.67 180.334H126.453V185.699H114.67V180.334Z" fill="#969ECC"/>
<path d="M205.032 180.334H216.815V185.699H205.032V180.334Z" fill="#969ECC"/>
<path d="M370.062 177.722H434.027V249.552H370.062V177.722Z" fill="#D2D6FA"/>
<path d="M375.661 184.006H428.432V243.263H375.661V184.006Z" fill="#F3F4FE"/>
<path d="M391.307 203.362L405.461 229.479L380.247 231.155L391.307 203.362Z" fill="#D2D6FA"/>
<path d="M422.222 190.867L412.356 208.732L402.042 194.763L422.222 190.867Z" fill="#D2D6FA"/>
<path d="M420.674 217.259L418.606 229.591L409.805 223.615L420.674 217.259Z" fill="#D2D6FA"/>
<circle cx="300.731" cy="172.016" r="14.9557" fill="#332D52"/>
<path d="M280.748 228.619C288.591 222.597 299.831 224.073 305.853 231.915C311.875 239.758 310.4 250.998 302.557 257.02L257.087 291.936C249.245 297.958 238.005 296.482 231.982 288.639C225.96 280.797 227.436 269.557 235.279 263.534L280.748 228.619Z" fill="#FAEEDE"/>
<circle cx="246.239" cy="276.426" r="19.216" fill="#F2E6D7"/>
<path d="M201.655 226.196C197.848 218.972 200.618 210.03 207.841 206.223C215.065 202.416 224.007 205.186 227.814 212.409L257.451 268.645C261.258 275.869 258.488 284.811 251.265 288.618C244.041 292.425 235.099 289.655 231.292 282.431L201.655 226.196Z" fill="#EF948C"/>
<path d="M219.478 204.091C226.898 207.311 230.302 215.936 227.082 223.356C223.862 230.775 215.237 234.18 207.818 230.96L196.063 225.858C188.643 222.638 185.239 214.013 188.459 206.594C191.679 199.174 200.304 195.77 207.723 198.99L219.478 204.091Z" fill="#EF948C"/>
<path d="M216.884 202.964C219.567 204.129 220.799 207.249 219.634 209.933C218.469 212.616 215.349 213.848 212.666 212.683L185.458 200.876C182.774 199.711 181.543 196.591 182.708 193.907C183.872 191.223 186.992 189.992 189.676 191.157L216.884 202.964Z" fill="#EF948C"/>
<path d="M224.623 205.772C226.232 208.2 225.568 211.473 223.14 213.082C220.711 214.691 217.438 214.027 215.829 211.599L206.756 197.906C205.147 195.478 205.811 192.205 208.239 190.596C210.667 188.987 213.94 189.651 215.549 192.079L224.623 205.772Z" fill="#EA8681"/>
<circle cx="215.812" cy="212.275" r="10.4376" fill="#EA8681"/>
<path d="M280.748 228.619C288.591 222.597 299.831 224.073 305.853 231.915C311.875 239.758 310.4 250.998 302.557 257.02L257.087 291.936C249.245 297.958 238.005 296.482 231.982 288.639C225.96 280.797 227.436 269.557 235.279 263.534L280.748 228.619Z" fill="#F2E6D7"/>
<circle cx="246.239" cy="276.426" r="19.216" fill="#FAEEDE"/>
<path d="M201.655 226.196C197.848 218.972 200.618 210.03 207.841 206.223C215.065 202.416 224.007 205.186 227.814 212.409L257.451 268.645C261.258 275.869 258.488 284.811 251.265 288.618C244.041 292.425 235.099 289.655 231.292 282.431L201.655 226.196Z" fill="#EF948C"/>
<path d="M219.478 204.091C226.898 207.311 230.302 215.936 227.082 223.356C223.862 230.775 215.237 234.18 207.818 230.96L196.063 225.858C188.643 222.638 185.239 214.013 188.459 206.594C191.679 199.174 200.304 195.77 207.723 198.99L219.478 204.091Z" fill="#EF948C"/>
<path d="M188.463 206.58C188.987 205.374 189.67 204.243 190.492 203.216C188.325 210.334 191.851 217.943 198.682 220.891L200.111 221.513L205.677 223.929L209.73 231.626L233.902 277.496C236.229 281.906 240.622 284.846 245.586 285.317C250.55 285.788 255.417 283.726 258.533 279.834C256.788 285.568 251.755 289.681 245.789 290.25C239.822 290.819 234.103 287.73 231.306 282.429L203.082 228.862L196.081 225.824C192.517 224.284 189.711 221.391 188.282 217.781C186.853 214.171 186.918 210.142 188.463 206.58Z" fill="#EA8681"/>
<path d="M216.884 202.964C219.567 204.129 220.799 207.249 219.634 209.933C218.469 212.616 215.349 213.848 212.666 212.683L185.458 200.876C182.774 199.711 181.543 196.591 182.708 193.907C183.872 191.223 186.992 189.992 189.676 191.157L216.884 202.964Z" fill="#EF948C"/>
<path d="M224.623 205.772C226.232 208.2 225.568 211.473 223.14 213.082C220.711 214.691 217.438 214.027 215.829 211.599L206.756 197.906C205.147 195.478 205.811 192.205 208.239 190.596C210.667 188.987 213.94 189.651 215.549 192.079L224.623 205.772Z" fill="#EF948C"/>
<circle cx="215.812" cy="212.275" r="10.4376" fill="#EF948C"/>
<circle cx="301.735" cy="247.602" r="28.0616" fill="#F2E6D7"/>
<path d="M323.592 374.611C307.043 374.986 293.323 361.875 292.947 345.326L290.945 257.116C290.57 240.566 303.681 226.846 320.23 226.471L344.917 225.91C361.467 225.535 375.187 238.646 375.562 255.195L377.564 343.406C377.94 359.955 364.828 373.675 348.279 374.051L323.592 374.611Z" fill="#FAEEDE"/>
<path d="M279.05 246.418C278.704 229.112 292.453 214.802 309.759 214.456L356.918 213.513C374.224 213.167 388.534 226.915 388.881 244.221C389.452 272.775 366.767 296.385 338.214 296.956L331.779 297.085C303.228 297.652 279.621 274.969 279.05 246.418H279.05Z" fill="#FAEEDE"/>
<path d="M337.33 296.348H337.381C365.926 295.699 388.541 272.033 387.893 243.487C387.501 226.186 373.158 212.478 355.857 212.869L308.708 213.94C306.554 213.987 304.411 214.258 302.312 214.747L347.572 213.716H348.301C365.322 213.724 379.224 227.317 379.613 244.334C380.188 269.697 362.277 291.731 337.33 296.348Z" fill="#FFF7EE"/>
<path d="M316.466 191.052L317.072 217.757C317.246 226.077 324.048 232.727 332.369 232.713H332.717C336.776 232.621 340.633 230.918 343.436 227.98C346.239 225.042 347.759 221.111 347.661 217.051L347.46 207.903L347.056 190.352C346.87 182.037 340.075 175.394 331.758 175.396H331.405C322.958 175.598 316.272 182.605 316.466 191.052Z" fill="#EF948C"/>
<path d="M243.318 376.436C230.445 376.729 219.772 366.53 219.48 353.657L219.448 352.241C219.156 339.368 229.355 328.695 242.228 328.403L353.85 325.87C366.723 325.578 377.395 335.777 377.687 348.65L377.719 350.066C378.011 362.939 367.813 373.611 354.94 373.903L243.318 376.436Z" fill="#332D52"/>
<path d="M329.796 351.636V495.089H377.848V351.636C377.848 338.367 367.091 327.61 353.822 327.61C340.553 327.61 329.796 338.367 329.796 351.636Z" fill="#666DA2"/>
<path d="M329.796 351.636V495.089H342.291V373.447C342.293 364.963 346.768 357.108 354.066 352.781C361.364 348.454 370.403 348.296 377.848 352.365V351.614C377.848 338.345 367.091 327.588 353.822 327.588C340.553 327.588 329.796 338.345 329.796 351.614L329.796 351.636Z" fill="#555A8B"/>
<path d="M329.796 474.415V495.078H377.848V481.961L329.796 474.415Z" fill="#141334"/>
<path d="M170.923 478.984L213.755 496.154L218.593 483.614L265.764 361.412C270.541 349.029 264.374 335.117 251.991 330.34C239.607 325.563 225.696 331.73 220.919 344.113L176.719 458.68L170.939 473.631L170.923 478.984Z" fill="#332D52"/>
<path d="M199.88 515.487L166.26 502.508L173.371 484.09L206.991 497.069L199.88 515.487Z" fill="#EA8681"/>
<path d="M371.844 517.27H335.806V498.817H371.844V517.27Z" fill="#EF948C"/>
<path d="M316.466 191.052L317.072 217.757C317.101 219.16 317.324 220.552 317.733 221.894H318.854C330.04 221.9 340.597 216.725 347.443 207.88L347.039 190.329C346.854 182.014 340.059 175.371 331.742 175.373H331.405C327.345 175.47 323.489 177.177 320.687 180.118C317.886 183.058 316.367 186.992 316.466 191.052Z" fill="#EA8681"/>
<path d="M289.924 178.541C289.924 197.752 304.936 213.615 324.118 214.674C324.763 214.708 325.407 214.725 326.063 214.725C339.097 214.887 351.21 208.027 357.775 196.765C364.339 185.504 364.339 171.583 357.775 160.322C351.21 149.06 339.097 142.2 326.063 142.362C325.407 142.362 324.763 142.362 324.118 142.413C304.937 143.469 289.925 159.33 289.924 178.541Z" fill="#EF948C"/>
<path d="M311.175 188.306C311.177 190.448 312.032 192.501 313.552 194.012C313.737 194.197 313.933 194.371 314.112 194.533C315.559 195.725 317.378 196.374 319.252 196.366H319.583C323.785 196.354 327.275 193.122 327.61 188.933C327.61 188.709 327.61 188.485 327.61 188.261C327.614 187.84 327.448 187.436 327.151 187.14C326.852 186.846 326.449 186.682 326.03 186.686L312.677 186.719C311.829 186.753 311.162 187.457 311.175 188.306Z" fill="#962F4A"/>
<path d="M319.432 195.122C319.433 195.54 319.474 195.957 319.555 196.366H319.6C323.802 196.354 327.292 193.122 327.627 188.933C327.046 188.763 326.444 188.678 325.839 188.681C324.135 188.686 322.503 189.367 321.301 190.575C320.1 191.782 319.427 193.418 319.432 195.122Z" fill="#E1617F"/>
<path d="M313.03 186.736C313.097 188.322 315.547 189.584 318.552 189.578C321.556 189.572 323.995 188.294 324.051 186.708L313.03 186.736Z" fill="white"/>
<path d="M289.924 178.541C289.924 197.752 304.936 213.615 324.118 214.674C325.116 214.624 326.108 214.529 327.089 214.388C309.175 211.929 295.827 196.623 295.827 178.541C295.827 160.459 309.175 145.152 327.089 142.693C326.108 142.558 325.116 142.463 324.118 142.413C304.937 143.469 289.925 159.33 289.924 178.541Z" fill="#EA8681"/>
<path d="M355.958 242.899V243.274C356.311 255.225 364.282 264.704 374.013 264.844H374.641C384.765 264.581 392.803 254.317 392.579 241.929C392.467 235.068 391.01 229.518 386.974 225.51C384.56 223.285 381.691 221.611 378.565 220.605C376.013 219.849 373.305 219.779 370.717 220.403C362.174 222.466 355.778 231.833 355.958 242.899Z" fill="#FAEEDE"/>
<path d="M355.235 242.433V242.814C355.543 251.441 359.792 258.818 365.824 262.434C362.678 258.213 360.916 253.122 360.779 247.859C360.779 247.731 360.779 247.607 360.779 247.478C360.538 236.233 367.079 226.738 375.914 224.697C376.983 224.443 378.077 224.304 379.176 224.282C380.82 224.25 382.46 224.471 384.036 224.938C385.413 225.348 386.732 225.932 387.96 226.676C385.606 223.466 382.289 221.09 378.492 219.893C375.852 219.105 373.052 219.022 370.37 219.652C361.53 221.709 354.988 231.194 355.235 242.433Z" fill="#F2E6D7"/>
<path d="M362.752 251.484C358.584 242.517 362.474 231.869 371.441 227.701C380.408 223.533 391.056 227.423 395.224 236.39L419.389 288.377C423.557 297.344 419.666 307.992 410.699 312.16C401.732 316.328 391.084 312.437 386.916 303.47L362.752 251.484Z" fill="#FAEEDE"/>
<circle cx="401.879" cy="295.608" r="19.216" fill="#F2E6D7"/>
<path d="M362.752 251.484C358.584 242.517 362.474 231.869 371.441 227.701C380.408 223.533 391.056 227.423 395.224 236.39L419.389 288.377C423.557 297.344 419.666 307.992 410.699 312.16C401.732 316.328 391.084 312.437 386.916 303.47L362.752 251.484Z" fill="#FAEEDE"/>
<path d="M362.073 238.1C365.579 232.567 371.825 229.39 378.361 229.815C384.896 230.24 390.678 234.2 393.437 240.141L417.597 292.127C419.556 296.33 419.805 301.13 418.292 305.513C420.112 302.644 421.084 299.319 421.095 295.922C421.092 293.32 420.518 290.75 419.413 288.394L395.253 236.407C392.183 229.783 385.398 225.688 378.107 226.058C370.816 226.427 364.48 231.188 362.096 238.089L362.073 238.1Z" fill="#FFF7EE"/>
<circle cx="401.879" cy="295.608" r="19.216" fill="#F2E6D7"/>
<rect x="369.406" y="170.244" width="88.6582" height="34.665" rx="17.3325" transform="rotate(-180 369.406 170.244)" fill="#332D52"/>
<circle cx="359.288" cy="172.016" r="14.9557" fill="#332D52"/>
<circle cx="361.961" cy="174.69" r="12.2819" fill="#49466B"/>
<circle cx="362.253" cy="178.546" r="11.9904" fill="#EF948C"/>
<path d="M361.311 182.296V174.802C361.312 174.423 361.494 174.067 361.802 173.845C362.109 173.623 362.504 173.562 362.864 173.681C364.98 174.359 366.416 176.327 366.416 178.549C366.416 180.771 364.98 182.739 362.864 183.418C362.504 183.533 362.111 183.471 361.804 183.25C361.497 183.029 361.314 182.674 361.311 182.296H361.311Z" fill="#EA8681"/>
<circle cx="300.731" cy="147.643" r="22.9101" fill="#332D52"/>
<path d="M279.907 147.643C279.902 153.127 282.245 158.351 286.345 161.994C290.444 165.637 295.908 167.351 301.354 166.702C291.711 165.553 284.45 157.376 284.45 147.665C284.45 137.954 291.711 129.777 301.354 128.628C295.908 127.979 290.444 129.693 286.345 133.336C282.245 136.979 279.902 142.203 279.907 147.687V147.643Z" fill="#49466B"/>
<circle cx="318.871" cy="133.786" r="15.7629" fill="#332D52"/>
<path d="M301.354 175.71C301.437 177.998 303.316 179.81 305.605 179.81C307.895 179.81 309.774 177.998 309.857 175.71C309.859 175.377 309.819 175.046 309.74 174.723C309.285 176.639 307.574 177.991 305.605 177.991C303.637 177.991 301.926 176.639 301.471 174.723C301.392 175.046 301.352 175.377 301.354 175.71Z" fill="#332D52"/>
<path d="M324.712 175.71C324.712 178.06 326.617 179.964 328.967 179.964C331.317 179.964 333.221 178.06 333.221 175.71C333.223 175.377 333.183 175.046 333.104 174.723C332.644 176.636 330.934 177.984 328.967 177.984C327 177.984 325.289 176.636 324.83 174.723C324.75 175.046 324.711 175.377 324.712 175.71Z" fill="#332D52"/>
<path d="M329.802 526.441H375.589C375.59 515.296 367.568 505.769 356.586 503.873C355.3 503.656 353.999 503.548 352.695 503.548C346.623 503.546 340.799 505.958 336.506 510.251C332.212 514.545 329.801 520.369 329.802 526.441Z" fill="#332D52"/>
<path d="M329.802 526.441H340.374C340.379 516.222 346.902 507.144 356.586 503.878C355.3 503.662 353.999 503.553 352.695 503.553C346.624 503.552 340.801 505.963 336.508 510.255C332.214 514.547 329.802 520.37 329.802 526.441Z" fill="#49466B"/>
<path d="M323.462 522.298C323.464 522.746 323.509 523.193 323.597 523.633C323.64 523.846 323.694 524.058 323.759 524.266C323.822 524.472 323.897 524.674 323.983 524.871C324.229 525.461 324.562 526.011 324.97 526.503C325.105 526.665 325.245 526.817 325.396 526.968C325.545 527.117 325.702 527.257 325.867 527.388C327.047 528.367 328.533 528.9 330.066 528.896H378.924C381.626 528.902 383.838 526.749 383.905 524.047C383.973 521.346 381.87 519.086 379.171 518.958L342.544 516.513L330.385 515.701C329.291 515.645 328.2 515.864 327.212 516.34C326.926 516.48 326.648 516.639 326.383 516.816C326.124 516.989 325.875 517.176 325.637 517.377C325.402 517.59 325.182 517.82 324.981 518.066C324.845 518.229 324.718 518.399 324.6 518.576C324.176 519.199 323.865 519.892 323.681 520.622C323.624 520.833 323.579 521.046 323.546 521.261C323.491 521.604 323.463 521.951 323.462 522.298H323.462Z" fill="#332D52"/>
<path d="M323.462 522.298C323.464 522.746 323.509 523.193 323.597 523.633C323.637 523.847 323.691 524.059 323.759 524.266C323.82 524.473 323.895 524.675 323.983 524.871C324.229 525.461 324.562 526.011 324.97 526.503C325.105 526.665 325.245 526.817 325.396 526.968C325.545 527.117 325.702 527.257 325.867 527.388C327.047 528.367 328.533 528.9 330.066 528.896H345.733C342.717 528.904 340.079 526.865 339.327 523.944C338.574 521.023 339.899 517.964 342.544 516.513L330.385 515.701C329.291 515.645 328.2 515.864 327.212 516.34C326.64 516.616 326.109 516.973 325.637 517.399C325.402 517.612 325.182 517.843 324.981 518.089C324.843 518.25 324.716 518.421 324.6 518.599C324.176 519.222 323.865 519.914 323.681 520.645C323.624 520.855 323.579 521.068 323.546 521.284C323.492 521.619 323.464 521.959 323.462 522.298H323.462Z" fill="#49466B"/>
<path d="M201.762 521.26L164.974 505.795L170.805 491.925L201.614 504.876C203.2 505.543 204.456 506.812 205.105 508.405C205.755 509.997 205.746 511.783 205.079 513.369L201.762 521.26Z" fill="#49466B"/>
<path d="M137.177 499.046L179.387 516.788C182.556 509.248 181.462 500.59 176.517 494.075C171.571 487.56 163.526 484.179 155.412 485.204C147.297 486.23 140.346 491.506 137.177 499.046H137.177Z" fill="#332D52"/>
<path d="M137.177 499.046L149.038 504.058C152.976 494.684 162.625 489.031 172.727 490.178C167.132 485.631 159.722 483.985 152.727 485.735C145.733 487.486 139.971 492.428 137.177 499.074L137.177 499.046Z" fill="#49466B"/>
<path d="M204.556 519.249L143.92 490.229C142.291 489.45 140.413 489.372 138.725 490.014C137.037 490.656 135.685 491.961 134.985 493.626C134.305 495.24 134.295 497.059 134.956 498.681C135.617 500.303 136.896 501.596 138.511 502.275L200.481 528.325C201.697 528.837 203.067 528.844 204.288 528.346C205.51 527.848 206.484 526.884 206.995 525.667C208.023 523.22 206.95 520.396 204.556 519.249Z" fill="#332D52"/>
<path d="M134.985 493.631C133.573 496.992 135.151 500.861 138.511 502.275L152.951 508.346C150.083 507.153 148.434 504.123 148.99 501.067C149.546 498.011 152.156 495.756 155.26 495.649L143.926 490.218C142.294 489.438 140.413 489.361 138.723 490.007C137.033 490.652 135.682 491.962 134.985 493.631Z" fill="#49466B"/>
<path d="M401.885 322.649L405.668 333.435L412.322 352.432L474.174 528.924H487.97L440.558 352.432L435.456 333.435L432.558 322.649H401.885Z" fill="#441242"/>
<path d="M405.668 333.435L412.322 352.432H440.557L435.456 333.435H405.668Z" fill="#2F073A"/>
<path d="M204.304 322.649L200.52 333.435L193.866 352.432L132.014 528.924H118.219L165.631 352.432L170.732 333.435L173.63 322.649H204.304Z" fill="#441242"/>
<path d="M200.52 333.435L193.866 352.432H165.631L170.732 333.435H200.52Z" fill="#2F073A"/>
<path d="M471.271 341.647L142.687 341.647C138.155 341.65 134.476 337.983 134.464 333.451V322.677L479.494 322.677V333.451C479.482 337.983 475.803 341.65 471.271 341.647Z" fill="#441242"/>
<rect x="520.925" y="327.723" width="427.892" height="15.0679" rx="7.53393" transform="rotate(-180 520.925 327.723)" fill="#D8BA9F"/>
<path d="M93.0327 320.194C93.0358 324.354 96.4071 327.725 100.567 327.728H513.391C517.552 327.728 520.925 324.355 520.925 320.194C520.927 319.304 520.769 318.422 520.46 317.588C519.367 320.547 516.546 322.512 513.391 322.509H100.567C98.5677 322.514 96.6499 321.719 95.2413 320.301C94.4669 319.537 93.8731 318.61 93.5036 317.588C93.192 318.421 93.0325 319.304 93.0327 320.194Z" fill="#C89F87"/>
<circle cx="466.993" cy="334.488" r="2.78598" fill="#D8BA9F"/>
<circle cx="466.388" cy="334.673" r="3.39699" fill="#2F073A"/>
<circle cx="466.993" cy="334.488" r="2.78598" fill="#D8BA9F"/>
<path d="M464.208 334.488C464.208 336.036 465.462 337.291 467.01 337.291H467.302C465.929 337.086 464.914 335.907 464.914 334.519C464.914 333.131 465.929 331.953 467.302 331.747C467.205 331.742 467.107 331.742 467.01 331.747C465.486 331.747 464.241 332.965 464.208 334.488H464.208Z" fill="#C89F87"/>
<path d="M466.994 336.013C467.135 336.058 467.283 336.081 467.431 336.08C468.31 336.08 469.023 335.368 469.023 334.488C469.023 333.609 468.31 332.896 467.431 332.896C467.283 332.896 467.135 332.919 466.994 332.964C467.681 333.152 468.157 333.776 468.157 334.488C468.157 335.201 467.681 335.825 466.994 336.013H466.994Z" fill="#F5EAE4"/>
<circle cx="451.41" cy="334.488" r="2.78598" fill="#D8BA9F"/>
<circle cx="450.805" cy="334.673" r="3.39699" fill="#2F073A"/>
<circle cx="451.41" cy="334.488" r="2.78598" fill="#D8BA9F"/>
<path d="M448.63 334.488C448.63 336.036 449.884 337.291 451.432 337.291H451.724C450.351 337.086 449.336 335.907 449.336 334.519C449.336 333.131 450.351 331.953 451.724 331.747C451.627 331.742 451.53 331.742 451.432 331.747C449.908 331.747 448.663 332.965 448.63 334.488H448.63Z" fill="#C89F87"/>
<path d="M451.41 336.013C451.551 336.058 451.699 336.081 451.847 336.08C452.726 336.08 453.439 335.368 453.439 334.488C453.439 333.609 452.726 332.896 451.847 332.896C451.699 332.896 451.551 332.919 451.41 332.964C452.097 333.152 452.573 333.776 452.573 334.488C452.573 335.201 452.097 335.825 451.41 336.013H451.41Z" fill="#F5EAE4"/>
<circle cx="148.466" cy="334.488" r="2.78598" fill="#D8BA9F"/>
<circle cx="149.072" cy="334.673" r="3.39699" fill="#2F073A"/>
<circle cx="148.466" cy="334.488" r="2.78598" fill="#D8BA9F"/>
<path d="M151.252 334.488C151.252 336.036 149.998 337.291 148.45 337.291H148.158C149.531 337.086 150.546 335.907 150.546 334.519C150.546 333.131 149.531 331.953 148.158 331.747C148.255 331.742 148.353 331.742 148.45 331.747C149.974 331.747 151.219 332.965 151.252 334.488Z" fill="#C89F87"/>
<path d="M148.466 336.013C148.325 336.058 148.178 336.081 148.029 336.08C147.46 336.08 146.935 335.777 146.651 335.284C146.366 334.792 146.366 334.185 146.651 333.692C146.935 333.2 147.46 332.896 148.029 332.896C148.178 332.896 148.325 332.919 148.466 332.964C147.787 333.159 147.318 333.781 147.318 334.488C147.318 335.196 147.787 335.818 148.466 336.013Z" fill="#F5EAE4"/>
<circle cx="164.05" cy="334.488" r="2.78598" fill="#D8BA9F"/>
<circle cx="164.656" cy="334.673" r="3.39699" fill="#2F073A"/>
<circle cx="164.05" cy="334.488" r="2.78598" fill="#D8BA9F"/>
<path d="M166.83 334.488C166.83 336.036 165.576 337.291 164.028 337.291H163.736C165.109 337.086 166.124 335.907 166.124 334.519C166.124 333.131 165.109 331.953 163.736 331.747C163.833 331.742 163.93 331.742 164.028 331.747C165.552 331.747 166.797 332.965 166.83 334.488Z" fill="#C89F87"/>
<path d="M164.05 336.013C163.909 336.058 163.761 336.081 163.613 336.08C162.734 336.08 162.021 335.368 162.021 334.488C162.021 333.609 162.734 332.896 163.613 332.896C163.761 332.896 163.909 332.919 164.05 332.964C163.363 333.152 162.886 333.776 162.886 334.488C162.886 335.201 163.363 335.825 164.05 336.013Z" fill="#F5EAE4"/>
<path d="M332.568 284.111C335.482 283.845 338.06 285.99 338.326 288.904C338.593 291.817 336.447 294.395 333.534 294.662L317.105 296.166C314.192 296.432 311.614 294.287 311.347 291.373C311.081 288.46 313.226 285.882 316.14 285.615L332.568 284.111Z" fill="#EA8681"/>
<circle cx="334.64" cy="293.859" r="10.4376" fill="#EA8681"/>
<path d="M340.202 312.953C332.037 312.872 325.483 306.187 325.565 298.022C325.646 289.857 332.331 283.304 340.496 283.385L404.06 284.017C412.225 284.099 418.778 290.783 418.697 298.948C418.616 307.113 411.931 313.667 403.766 313.585L340.202 312.953Z" fill="#EF948C"/>
<path d="M329.13 286.739C335.488 281.74 344.694 282.841 349.694 289.199C354.693 295.557 353.592 304.763 347.235 309.763L337.161 317.684C330.804 322.683 321.597 321.582 316.597 315.225C311.598 308.867 312.699 299.66 319.057 294.66L329.13 286.739Z" fill="#EF948C"/>
<path d="M326.903 288.486C329.203 286.677 332.533 287.075 334.342 289.375C336.15 291.675 335.752 295.005 333.452 296.814L310.138 315.147C307.838 316.956 304.508 316.557 302.699 314.257C300.891 311.958 301.289 308.627 303.589 306.819L326.903 288.486Z" fill="#EF948C"/>
<path d="M332.568 284.111C335.481 283.845 338.059 285.99 338.326 288.904C338.593 291.817 336.447 294.395 333.534 294.662L317.105 296.166C314.192 296.432 311.614 294.287 311.347 291.373C311.08 288.46 313.226 285.882 316.139 285.615L332.568 284.111Z" fill="#EF948C"/>
<circle cx="334.64" cy="293.859" r="10.4376" fill="#EF948C"/>
<path d="M340.202 312.953C332.037 312.872 325.483 306.187 325.565 298.022C325.646 289.857 332.331 283.304 340.496 283.385L404.06 284.017C412.225 284.099 418.778 290.783 418.697 298.948C418.616 307.113 411.931 313.667 403.766 313.585L340.202 312.953Z" fill="#EF948C"/>
<path d="M329.13 286.739C335.488 281.74 344.694 282.841 349.694 289.199C354.693 295.557 353.592 304.763 347.235 309.763L337.161 317.684C330.804 322.683 321.597 321.582 316.597 315.225C311.598 308.867 312.699 299.66 319.057 294.66L329.13 286.739Z" fill="#EF948C"/>
<path d="M315.177 311.522C320.177 317.881 329.385 318.983 335.744 313.983L337.426 312.655L341.731 309.291L347.796 309.347L402.271 309.908C410.436 309.989 417.121 303.437 417.205 295.272V295.12C417.205 293.922 417.059 292.729 416.767 291.566C418.021 293.778 418.678 296.278 418.673 298.82V298.971C418.593 307.136 411.91 313.691 403.746 313.613L343.205 313.013L337.207 317.728C333.296 320.799 328.094 321.677 323.391 320.06C318.688 318.443 315.127 314.55 313.933 309.723C314.302 310.353 314.718 310.954 315.177 311.522Z" fill="#F3A6A0"/>
<path d="M326.904 288.486C329.203 286.677 332.534 287.075 334.342 289.375C336.15 291.675 335.752 295.005 333.452 296.814L310.138 315.147C307.838 316.956 304.508 316.557 302.7 314.257C300.891 311.958 301.29 308.627 303.589 306.819L326.904 288.486Z" fill="#EF948C"/>
<path d="M334.101 297.995C336.109 296.416 339.016 296.764 340.595 298.772C342.174 300.779 341.826 303.687 339.818 305.265L333.05 310.588C331.042 312.166 328.135 311.819 326.556 309.811C324.977 307.803 325.325 304.896 327.333 303.317L334.101 297.995Z" fill="#F3A6A0"/>
<circle cx="298.506" cy="176.063" r="15.4659" stroke="white" stroke-width="1.6302"/>
<circle cx="334.998" cy="176.063" r="15.4659" stroke="white" stroke-width="1.6302"/>
<path d="M313.96 176.668H319.544" stroke="white" stroke-width="1.6302"/>
<path d="M170.923 478.984L213.755 496.154L218.593 483.614L176.719 458.681L170.939 473.636L170.923 478.984Z" fill="#141334"/>
<path d="M233.47 307.985H224.703V306.304C224.703 304.712 225.993 303.422 227.584 303.422H230.594C232.185 303.422 233.475 304.712 233.475 306.304V307.985L233.47 307.985Z" fill="#ABB2D8"/>
<path d="M242.237 307.985H233.47V306.304C233.47 304.712 234.76 303.422 236.351 303.422H239.361C240.952 303.422 242.242 304.712 242.242 306.304V307.985L242.237 307.985Z" fill="#ABB2D8"/>
<path d="M251.01 307.985H242.243V306.304C242.243 304.712 243.533 303.422 245.124 303.422H248.134C249.725 303.422 251.015 304.712 251.015 306.304V307.985L251.01 307.985Z" fill="#ABB2D8"/>
<path d="M259.777 307.985H251.01V306.304C251.01 304.712 252.3 303.422 253.891 303.422H256.901C258.492 303.422 259.782 304.712 259.782 306.304V307.985L259.777 307.985Z" fill="#ABB2D8"/>
<path d="M268.544 307.985H259.777V306.304C259.777 304.712 261.067 303.422 262.658 303.422H265.668C267.26 303.422 268.55 304.712 268.55 306.304V307.985L268.544 307.985Z" fill="#ABB2D8"/>
<path d="M277.317 307.985H268.55V306.304C268.55 304.712 269.84 303.422 271.431 303.422H274.436C276.027 303.422 277.317 304.712 277.317 306.304V307.985L277.317 307.985Z" fill="#ABB2D8"/>
<path d="M286.078 307.985H277.311V306.304C277.311 304.712 278.601 303.422 280.192 303.422H283.203C284.794 303.422 286.084 304.712 286.084 306.304V307.985L286.078 307.985Z" fill="#ABB2D8"/>
<rect x="297.738" y="312.655" width="100.082" height="7.14714" rx="3.57357" transform="rotate(-180 297.738 312.655)" fill="#5D6295"/>
<path d="M225.224 312.655H141.701C138.201 312.655 135.149 310.275 134.296 306.881L118.039 242.215C117.466 239.931 117.977 237.511 119.425 235.655C120.873 233.798 123.096 232.713 125.45 232.713H199.152C202.652 232.713 205.704 235.093 206.557 238.487L225.224 312.655Z" fill="#666DA2"/>
<path d="M118.034 242.22L134.29 306.881C135.147 310.276 138.199 312.656 141.701 312.66H225.224L223.425 305.513H157.447C153.944 305.511 150.891 303.13 150.036 299.734L133.78 235.073C133.586 234.302 133.513 233.506 133.561 232.713H125.444C123.09 232.715 120.867 233.801 119.419 235.659C117.972 237.516 117.461 239.936 118.034 242.22Z" fill="#5D6295"/>
<circle cx="166.399" cy="274.822" r="4.18178" fill="#ABB2D8"/>
<path d="M160.804 281.078C162.621 283.885 165.962 285.305 169.243 284.666C172.525 284.028 175.089 281.458 175.721 278.176C176.353 274.893 174.926 271.555 172.117 269.744C174.175 272.984 173.708 277.219 170.994 279.933C168.28 282.648 164.045 283.114 160.804 281.056L160.804 281.078Z" fill="#ABB2D8"/>
<path d="M329.796 498.929H377.848L382.747 486.58L321.052 476.893L329.796 498.929Z" fill="#332D52"/>
<circle cx="373.856" cy="493.783" r="2.999" fill="#141334"/>
<circle cx="374.03" cy="494.596" r="2.18618" fill="#666DA2"/>
<path d="M374.008 496.025C374.104 496.043 374.202 496.052 374.299 496.053C375.071 496.005 375.672 495.366 375.672 494.593C375.672 493.82 375.071 493.18 374.299 493.133C374.201 493.132 374.103 493.144 374.008 493.166C374.68 493.313 375.159 493.908 375.159 494.596C375.159 495.283 374.68 495.878 374.008 496.025Z" fill="#332D52"/>
<path d="M374.367 492.768C374.243 492.741 374.117 492.727 373.991 492.729C373.001 492.783 372.227 493.602 372.227 494.593C372.227 495.584 373.001 496.402 373.991 496.457C374.117 496.458 374.243 496.445 374.367 496.417C373.507 496.232 372.894 495.472 372.894 494.593C372.894 493.714 373.507 492.954 374.367 492.768Z" fill="#9DA5D1"/>
<path d="M167.335 481.905L211.933 499.781L221.076 490.145L167.413 458.198L167.335 481.905Z" fill="#262344"/>
<circle cx="210.38" cy="491.714" r="2.999" fill="#141334"/>
<circle cx="210.554" cy="492.527" r="2.18618" fill="#666DA2"/>
<path d="M210.554 493.968C210.65 493.99 210.748 494.002 210.846 494.001C211.617 493.954 212.218 493.314 212.218 492.541C212.218 491.768 211.617 491.129 210.846 491.081C210.749 491.072 210.651 491.072 210.554 491.081C211.226 491.228 211.705 491.822 211.705 492.51C211.705 493.198 211.226 493.793 210.554 493.94L210.554 493.968Z" fill="#332D52"/>
<path d="M210.885 490.7C210.762 490.672 210.636 490.659 210.509 490.66C209.52 490.715 208.745 491.533 208.745 492.524C208.745 493.516 209.52 494.334 210.509 494.388C210.636 494.39 210.762 494.376 210.885 494.349C210.026 494.163 209.412 493.403 209.412 492.524C209.412 491.645 210.026 490.885 210.885 490.7Z" fill="#9DA5D1"/>
</svg>
