<svg width="591" height="354" viewBox="0 0 591 354" fill="none" xmlns="http://www.w3.org/2000/svg">
<path d="M223.952 135.819C223.677 135.727 223.494 135.544 223.311 135.269C223.127 134.994 223.127 134.811 223.127 134.536C223.127 134.17 223.311 133.803 223.586 133.529C223.86 133.254 224.227 133.071 224.593 133.071H231.464V126.108C231.464 125.741 231.648 125.375 231.923 125.1C232.197 124.825 232.564 124.642 232.93 124.642C233.297 124.642 233.663 124.825 233.938 125.1C234.213 125.375 234.396 125.741 234.396 126.108V135.91H224.685C224.318 135.91 224.135 135.911 223.952 135.819Z" fill="#110580"/>
<path d="M82.6808 135.727C82.406 135.636 82.2227 135.452 82.0395 135.177C81.8563 134.903 81.7646 134.72 81.8563 134.445C81.8563 134.078 82.0395 133.712 82.2227 133.437C82.4976 133.162 82.864 132.979 83.2305 132.979H100.912C101.279 132.979 101.645 133.162 101.92 133.437C102.195 133.712 102.287 134.078 102.287 134.445C102.287 134.811 102.103 135.178 101.92 135.452C101.645 135.727 101.279 135.91 100.912 135.91H83.2305C83.0473 135.819 82.864 135.819 82.6808 135.727ZM117.953 135.727C117.678 135.636 117.403 135.361 117.22 135.086C117.037 134.811 117.037 134.445 117.128 134.17C117.22 133.895 117.403 133.528 117.586 133.345C117.861 133.162 118.136 133.071 118.502 133.071H136.184C136.551 133.071 136.917 133.254 137.192 133.529C137.467 133.803 137.558 134.17 137.558 134.536C137.558 134.903 137.375 135.269 137.192 135.544C136.917 135.819 136.551 136.002 136.184 136.002H118.502C118.319 135.819 118.136 135.819 117.953 135.727ZM153.316 135.727C153.042 135.636 152.767 135.361 152.583 135.086C152.4 134.811 152.4 134.445 152.492 134.17C152.583 133.895 152.767 133.528 152.95 133.345C153.225 133.162 153.5 133.071 153.866 133.071H171.548C171.914 133.071 172.281 133.254 172.556 133.529C172.83 133.803 172.922 134.17 172.922 134.536C172.922 134.903 172.739 135.269 172.556 135.544C172.281 135.819 171.914 136.002 171.548 136.002H153.866C153.683 135.819 153.5 135.819 153.316 135.727ZM188.588 135.727C188.313 135.636 188.13 135.452 187.947 135.177C187.764 134.903 187.764 134.72 187.764 134.445C187.764 134.078 187.947 133.712 188.222 133.437C188.497 133.162 188.863 132.979 189.23 132.979H206.82C207.186 132.979 207.553 133.162 207.828 133.437C208.102 133.712 208.194 134.078 208.194 134.445C208.194 134.811 208.011 135.178 207.828 135.452C207.553 135.727 207.186 135.91 206.82 135.91H189.23C189.046 135.819 188.772 135.819 188.588 135.727Z" fill="#110580"/>
<path d="M55.8376 135.819V126.016C55.8376 125.649 56.0208 125.283 56.2041 125.008C56.4789 124.733 56.8454 124.55 57.2119 124.55C57.5783 124.55 57.9448 124.733 58.2196 125.008C58.4945 125.283 58.5861 125.649 58.5861 126.016V132.979H65.4573C65.8237 132.979 66.1902 133.162 66.465 133.437C66.7399 133.712 66.9231 134.078 66.9231 134.445C66.9231 134.811 66.7399 135.178 66.465 135.452C66.1902 135.727 65.8237 135.91 65.4573 135.91H55.8376V135.819Z" fill="#110580"/>
<path d="M56.7537 110.808C56.4788 110.716 56.2956 110.533 56.1124 110.258C55.9291 109.983 55.8375 109.8 55.9291 109.525V93.0343C55.9291 92.6679 56.1124 92.3016 56.2956 92.0267C56.5705 91.7519 56.9369 91.5686 57.3034 91.5686C57.6698 91.5686 58.0363 91.7519 58.3111 92.0267C58.586 92.3016 58.6776 92.6679 58.6776 93.0343V109.525C58.6776 109.892 58.4943 110.258 58.3111 110.533C58.0363 110.808 57.6698 110.991 57.3034 110.991C57.1201 110.991 56.9369 110.9 56.7537 110.808ZM56.7537 77.8263C56.4788 77.7347 56.2956 77.5514 56.1124 77.2765C55.9291 77.0017 55.8375 76.8184 55.9291 76.5436V60.0528C55.9291 59.6863 56.1124 59.32 56.2956 59.0451C56.5705 58.7703 56.9369 58.587 57.3034 58.587C57.6698 58.587 58.0363 58.7703 58.3111 59.0451C58.586 59.32 58.6776 59.6863 58.6776 60.0528V76.5436C58.6776 76.91 58.4943 77.2766 58.3111 77.5514C58.0363 77.8263 57.6698 78.0095 57.3034 78.0095C57.1201 77.9179 56.9369 77.9179 56.7537 77.8263ZM56.7537 44.8447C56.4788 44.7531 56.2956 44.5698 56.1124 44.2949C55.9291 44.0201 55.8375 43.8368 55.9291 43.562V27.0712C55.9291 26.7047 56.1124 26.3384 56.2956 26.0635C56.5705 25.7887 56.9369 25.6055 57.3034 25.6055C57.6698 25.6055 58.0363 25.7887 58.3111 26.0635C58.586 26.3384 58.6776 26.7047 58.6776 27.0712V43.562C58.6776 43.9284 58.4943 44.295 58.3111 44.5698C58.0363 44.8447 57.6698 45.0279 57.3034 45.0279C57.1201 44.9363 56.9369 44.9363 56.7537 44.8447Z" fill="#110580"/>
<path d="M56.7538 11.8631C56.479 11.7715 56.2957 11.5882 56.1125 11.3133C55.9293 11.0385 55.8376 10.8552 55.8376 10.5804V0.777557H65.5489C65.9153 0.777557 66.2818 0.960788 66.5566 1.23564C66.8315 1.51048 67.0147 1.87703 67.0147 2.2435C67.0147 2.60996 66.8315 2.97629 66.5566 3.25113C66.2818 3.52598 65.9153 3.70921 65.5489 3.70921H58.6777V10.6721C58.6777 11.0385 58.4945 11.4051 58.3112 11.6799C58.0364 11.9548 57.6699 12.138 57.3035 12.138C57.2119 11.9548 56.937 11.8631 56.7538 11.8631Z" fill="#110580"/>
<path d="M82.7725 3.52596C82.4976 3.43435 82.2228 3.15954 82.0396 2.8847C81.8563 2.60985 81.8563 2.24339 81.8563 1.96854C81.9479 1.60208 82.1312 1.32732 82.406 1.14409C82.6809 0.960861 82.9557 0.869201 83.3222 0.869201H101.004C101.37 0.869201 101.737 1.05243 102.012 1.32728C102.287 1.60213 102.47 1.96845 102.47 2.33492C102.47 2.70138 102.287 3.06793 102.012 3.34278C101.737 3.61762 101.37 3.80085 101.004 3.80085H83.3222C83.139 3.61762 82.9557 3.52596 82.7725 3.52596ZM118.044 3.61767C117.861 3.61767 117.678 3.5261 117.495 3.43448C117.312 3.34286 117.22 3.1595 117.128 3.06788C116.945 2.79304 116.853 2.335 116.945 1.96854C117.037 1.60208 117.22 1.23562 117.586 1.05239C117.861 0.869156 118.319 0.777586 118.686 0.869201H136.368C136.734 0.869201 137.101 1.05243 137.375 1.32728C137.65 1.60213 137.833 1.96845 137.833 2.33492C137.833 2.70138 137.65 3.06793 137.375 3.34278C137.101 3.61762 136.734 3.80085 136.368 3.80085H118.686C118.411 3.61762 118.228 3.61767 118.044 3.61767ZM153.408 3.61767C153.133 3.52605 152.95 3.34273 152.767 3.06788C152.584 2.79304 152.584 2.60976 152.584 2.33492C152.584 1.96845 152.767 1.60213 153.042 1.32728C153.316 1.05243 153.683 0.869201 154.049 0.869201H171.731C172.098 0.869201 172.464 1.05243 172.739 1.32728C173.014 1.60213 173.105 1.96845 173.105 2.33492C173.105 2.70138 172.922 3.06793 172.739 3.34278C172.464 3.61762 172.098 3.80085 171.731 3.80085H154.049C153.775 3.70924 153.591 3.70928 153.408 3.61767ZM188.68 3.61767C188.405 3.52605 188.222 3.34273 188.039 3.06788C187.856 2.79304 187.856 2.60976 187.856 2.33492C187.856 1.96845 188.039 1.60213 188.314 1.32728C188.588 1.05243 188.955 0.869201 189.321 0.869201H207.003C207.37 0.869201 207.736 1.05243 208.011 1.32728C208.286 1.60213 208.377 1.96845 208.377 2.33492C208.377 2.70138 208.194 3.06793 208.011 3.34278C207.736 3.61762 207.37 3.80085 207.003 3.80085H189.23C189.047 3.70924 188.863 3.61767 188.68 3.61767Z" fill="#110580"/>
<path d="M232.289 11.9546C232.014 11.863 231.831 11.6799 231.648 11.405C231.464 11.1302 231.464 10.9469 231.464 10.6721V3.70921H224.593C224.227 3.70921 223.86 3.52598 223.586 3.25113C223.311 2.97629 223.127 2.60996 223.127 2.2435C223.127 1.87703 223.311 1.51048 223.586 1.23564C223.86 0.960788 224.227 0.777557 224.593 0.777557H234.305V10.5804C234.305 10.9468 234.121 11.3134 233.938 11.5882C233.663 11.8631 233.297 12.0463 232.93 12.0463C232.747 12.0463 232.472 12.0462 232.289 11.9546Z" fill="#110580"/>
<path d="M232.289 110.991C232.014 110.899 231.831 110.716 231.648 110.441C231.464 110.166 231.373 109.983 231.373 109.709V93.2178C231.373 92.8513 231.556 92.4848 231.831 92.2099C232.106 91.9351 232.472 91.7518 232.839 91.7518C233.205 91.7518 233.572 91.9351 233.846 92.2099C234.121 92.4848 234.305 92.8513 234.305 93.2178V109.8C234.305 110.167 234.121 110.533 233.846 110.808C233.572 111.083 233.205 111.266 232.839 111.266C232.655 111.083 232.472 111.083 232.289 110.991ZM232.289 77.9178C232.014 77.8262 231.831 77.6431 231.648 77.3682C231.464 77.0934 231.373 76.9101 231.373 76.6353V60.1445C231.373 59.778 231.556 59.4115 231.831 59.1366C232.106 58.8618 232.472 58.6785 232.839 58.6785C233.205 58.6785 233.572 58.8618 233.846 59.1366C234.121 59.4115 234.305 59.778 234.305 60.1445V76.6353C234.305 77.0017 234.121 77.3683 233.846 77.6431C233.572 77.918 233.205 78.1012 232.839 78.1012C232.655 78.1012 232.472 78.0094 232.289 77.9178ZM232.289 44.9362C232.014 44.8446 231.831 44.6615 231.648 44.3866C231.464 44.1118 231.373 43.9285 231.373 43.6537V27.1629C231.373 26.7964 231.556 26.4299 231.831 26.155C232.106 25.8802 232.472 25.6969 232.839 25.6969C233.205 25.6969 233.572 25.8802 233.846 26.155C234.121 26.4299 234.305 26.7964 234.305 27.1629V43.6537C234.305 44.0201 234.121 44.3867 233.846 44.6615C233.572 44.9364 233.205 45.1196 232.839 45.1196C232.655 45.028 232.472 45.0278 232.289 44.9362Z" fill="#110580"/>
<path d="M10.2129 94.1339L11.3123 93.9505C12.595 93.6756 13.9692 93.8589 15.1602 94.5003C16.3512 95.1416 17.2673 96.1493 17.7254 97.4319L25.5127 119.236C25.6044 119.511 25.696 119.786 25.696 120.153C23.0391 122.351 19.9242 123.817 16.5344 124.367C13.5111 124.917 10.3962 124.642 7.46448 123.817C7.46448 123.542 7.37288 123.268 7.37288 122.993L5.63216 99.9055C5.54055 98.5313 5.99867 97.2486 6.82321 96.2409C7.73937 95.1415 8.93032 94.4087 10.2129 94.1339Z" fill="#D7D7E6"/>
<path d="M9.84657 61.1523C9.66334 60.8775 9.3885 60.6026 9.11366 60.4193C8.83881 60.2361 8.47231 60.1445 8.10585 60.1445C7.73939 60.1445 7.46457 60.2361 7.0981 60.4193C6.82326 60.6026 6.54842 60.8775 6.36519 61.1523C5.17419 63.5343 3.61668 66.6492 2.42568 68.6647C0.318522 72.2377 -0.597589 80.8496 0.410182 84.6975C1.6928 88.7285 3.61668 92.5763 6.0903 96.0577C6.27353 96.3325 6.63999 96.6073 7.00646 96.699C8.83877 97.2487 10.6711 97.2487 12.5034 96.7907C16.0764 95.9661 16.4429 93.5841 16.4429 93.5841C16.4429 93.5841 18.4584 85.6137 18.1836 80.8497C17.8171 76.0856 15.2519 69.7641 14.1525 68.6647C12.595 66.2827 11.1292 63.8092 9.84657 61.1523Z" fill="#C7645D"/>
<path d="M38.9804 206.638L25.971 121.619C25.8793 121.16 25.7877 120.702 25.6961 120.244C23.1309 122.351 20.0159 123.817 16.6262 124.367C13.6945 124.825 10.5796 124.642 7.7395 123.817C7.7395 124.367 7.83111 124.917 8.01434 125.375L28.1698 208.928C28.6278 210.211 29.544 211.219 30.735 211.86C31.926 212.501 33.2086 212.684 34.5828 212.409C35.8655 212.135 37.0564 211.402 37.881 210.394C38.5223 209.295 38.9804 208.012 38.9804 206.638Z" fill="#2B31BA"/>
<path d="M35.0408 215.066L61.426 216.99L73.1528 55.6554L46.7675 53.7314L35.0408 215.066Z" fill="#DADAED"/>
<path d="M62.5254 76.6353L62.3422 78.5593L71.4121 79.2005L71.5953 77.2765L62.5254 76.6353Z" fill="#989BD7"/>
<path d="M61.2428 94.3171L61.1512 96.2409L70.2211 96.8824L70.3128 94.9584L61.2428 94.3171Z" fill="#989BD7"/>
<path d="M59.8687 112.732L59.6854 114.656L68.7554 115.297L68.9386 113.373L59.8687 112.732Z" fill="#989BD7"/>
<path d="M58.5861 130.78L58.4028 132.704L67.4727 133.345L67.656 131.421L58.5861 130.78Z" fill="#989BD7"/>
<path d="M57.3034 148.828L57.1201 150.752L66.1901 151.394L66.3733 149.47L57.3034 148.828Z" fill="#989BD7"/>
<path d="M55.9291 166.877L55.7458 168.801L64.8158 169.442L64.9991 167.518L55.9291 166.877Z" fill="#989BD7"/>
<path d="M54.6466 184.925L54.4634 186.849L63.5333 187.49L63.7165 185.566L54.6466 184.925Z" fill="#989BD7"/>
<path d="M51.4399 236.688L68.2972 239.619L90.4682 112.182L73.6109 109.25L51.4399 236.688Z" fill="#FFADB2"/>
<path d="M73.7026 109.25L90.5599 112.182L87.903 87.8123L84.4216 87.171L73.7026 109.25Z" fill="#EBDBCD"/>
<path d="M86.8036 99.0811L84.33 97.4319L82.3145 97.7068L79.8408 96.4243L84.2384 87.2627L87.7198 87.904L88.8192 97.7068L86.8036 99.0811Z" fill="#FF7A82"/>
<path d="M85.4293 154.783H11.6788C11.2207 154.783 10.7626 154.875 10.3961 155.058C9.93805 155.241 9.57158 155.516 9.29673 155.883C9.02189 156.249 8.74708 156.616 8.65547 157.074C8.56385 157.532 8.4722 157.99 8.56382 158.448L18.3667 237.695C18.5499 239.436 19.4661 241.085 20.7487 242.276C22.1229 243.467 23.772 244.108 25.6043 244.108H71.7785C73.5192 244.108 75.2599 243.467 76.6341 242.276C78.0084 241.085 78.8329 239.436 79.0162 237.695L88.5442 158.448C88.6358 157.99 88.5442 157.532 88.4526 157.165C88.3609 156.707 88.0861 156.341 87.8112 155.974C87.5364 155.608 87.1699 155.333 86.7118 155.15C86.3454 154.875 85.8873 154.783 85.4293 154.783Z" fill="#FF7A82"/>
<path d="M444.745 24.5061H147.27C136.734 24.5061 128.122 33.118 128.122 43.7454V232.84C128.122 243.467 136.734 252.079 147.27 252.079H444.745C455.281 252.079 463.893 243.467 463.893 232.84V43.7454C463.893 33.118 455.373 24.5061 444.745 24.5061Z" fill="#B3B6DE"/>
<path d="M446.12 36.6908H145.896C143.056 36.6908 140.857 38.9813 140.857 41.8214V230.733C140.857 233.573 143.147 235.863 145.896 235.863H446.12C448.96 235.863 451.159 233.573 451.159 230.733V41.8214C451.159 38.9813 448.868 36.6908 446.12 36.6908Z" fill="#E8EAF7"/>
<path d="M500.539 343.511H91.4759C89.4604 343.511 87.5365 342.962 85.7958 342.045C84.0551 341.038 82.5892 339.663 81.5815 337.923C80.5737 336.182 80.024 334.258 79.9324 332.243C79.8408 330.227 80.2988 328.303 81.215 326.471L122.717 262.157C124.274 259.133 126.748 256.568 129.588 254.827C132.52 253.087 135.818 252.171 139.208 252.171H452.441C455.831 252.171 459.221 253.087 462.152 254.827C465.084 256.568 467.466 259.133 469.024 262.157L510.525 326.471C511.442 328.211 511.9 330.227 511.808 332.243C511.716 334.258 511.167 336.182 510.159 337.923C509.151 339.663 507.685 341.038 505.945 342.045C504.479 342.962 502.555 343.511 500.539 343.511Z" fill="#C5C6E3"/>
<path d="M511.991 331.601C512.083 333.159 511.808 334.716 511.258 336.182C510.709 337.648 509.884 338.931 508.785 340.03C507.685 341.129 506.403 342.045 505.028 342.595C503.654 343.236 502.097 343.511 500.539 343.511H91.476C89.9186 343.511 88.4527 343.236 86.9869 342.595C85.6127 341.954 84.2384 341.129 83.2306 340.03C82.1312 338.931 81.3067 337.556 80.757 336.182C80.2073 334.716 79.9325 333.159 80.0241 331.601V341.862C80.0241 344.886 81.3067 347.817 83.4139 349.924C85.521 352.032 88.4527 353.222 91.476 353.222H500.539C503.563 353.222 506.403 352.031 508.602 349.833C510.709 347.726 511.991 344.794 511.991 341.771V331.601Z" fill="#999BC9"/>
<path d="M375.667 335.083H216.44C215.798 335.083 215.157 334.9 214.607 334.625C214.058 334.35 213.6 333.892 213.233 333.342C212.867 332.792 212.683 332.151 212.683 331.51C212.683 330.868 212.775 330.227 213.141 329.677L219.463 309.064C220.013 308.056 220.746 307.232 221.662 306.682C222.578 306.132 223.677 305.857 224.777 305.857H367.33C368.43 305.857 369.529 306.132 370.445 306.682C371.361 307.232 372.186 308.056 372.644 309.064L378.874 329.677C379.149 330.227 379.332 330.868 379.332 331.51C379.332 332.151 379.149 332.792 378.782 333.342C378.416 333.892 377.958 334.35 377.408 334.625C376.858 334.991 376.309 335.083 375.667 335.083Z" fill="#D8DBF2"/>
<path d="M434.026 298.803H157.989C157.256 298.803 156.523 298.62 155.882 298.253C155.24 297.887 154.691 297.337 154.324 296.696C153.958 296.054 153.683 295.321 153.683 294.589C153.683 293.856 153.866 293.123 154.233 292.39L165.868 268.02C166.509 266.829 167.334 265.913 168.433 265.272C169.532 264.63 170.815 264.264 172.098 264.264H420.009C421.292 264.264 422.575 264.63 423.674 265.272C424.773 265.913 425.69 266.921 426.331 268.02L437.966 292.39C438.332 293.031 438.516 293.856 438.516 294.589C438.516 295.321 438.332 296.146 437.874 296.787C437.508 297.429 436.958 297.978 436.225 298.345C435.492 298.62 434.759 298.803 434.026 298.803Z" fill="#A7A9D6"/>
<path d="M140.857 54.3726H451.25V230.733C451.25 231.374 451.159 232.107 450.884 232.657C450.609 233.298 450.242 233.848 449.784 234.306C449.326 234.764 448.777 235.13 448.135 235.405C447.494 235.68 446.853 235.771 446.211 235.771H145.896C144.521 235.771 143.239 235.222 142.323 234.306C141.406 233.39 140.857 232.015 140.857 230.733V54.3726Z" fill="white"/>
<path d="M236.961 70.5885H204.713C203.888 70.5885 203.247 71.2299 203.247 72.0545V104.486C203.247 105.311 203.888 105.952 204.713 105.952H236.961C237.786 105.952 238.427 105.311 238.427 104.486V72.0545C238.427 71.3216 237.786 70.5885 236.961 70.5885Z" fill="#E8E8F7"/>
<path d="M385.562 99.5391H269.027C267.286 99.5391 265.82 101.005 265.82 102.746C265.82 104.578 267.286 105.952 269.027 105.952H385.562C387.303 105.952 388.768 104.486 388.768 102.746C388.768 101.005 387.303 99.5391 385.562 99.5391Z" fill="#E8E8F7"/>
<path d="M352.855 85.0638H269.027C267.286 85.0638 265.82 86.5297 265.82 88.2704C265.82 90.1027 267.286 91.4769 269.027 91.4769H352.855C354.596 91.4769 356.062 90.0111 356.062 88.2704C356.062 86.5297 354.596 85.0638 352.855 85.0638Z" fill="#E8E8F7"/>
<path d="M369.163 70.5885H269.027C267.286 70.5885 265.82 72.0544 265.82 73.7951C265.82 75.6274 267.286 77.0016 269.027 77.0016H369.254C370.995 77.0016 372.461 75.5358 372.461 73.7951C372.461 72.0544 370.995 70.5885 369.163 70.5885Z" fill="#E8E8F7"/>
<path d="M236.961 128.215H204.713C203.888 128.215 203.247 128.856 203.247 129.681V162.113C203.247 162.937 203.888 163.578 204.713 163.578H236.961C237.786 163.578 238.427 162.937 238.427 162.113V129.681C238.427 128.856 237.786 128.215 236.961 128.215Z" fill="#E8E8F7"/>
<path d="M385.562 157.165H269.027C267.286 157.165 265.82 158.631 265.82 160.372C265.82 162.204 267.286 163.578 269.027 163.578H385.562C387.303 163.578 388.768 162.112 388.768 160.372C388.768 158.631 387.303 157.165 385.562 157.165Z" fill="#E8E8F7"/>
<path d="M352.855 142.69H269.027C267.286 142.69 265.82 144.156 265.82 145.897C265.82 147.729 267.286 149.103 269.027 149.103H352.855C354.596 149.103 356.062 147.637 356.062 145.897C356.062 144.156 354.596 142.69 352.855 142.69Z" fill="#E8E8F7"/>
<path d="M369.163 128.215H269.027C267.286 128.215 265.82 129.681 265.82 131.421C265.82 133.254 267.286 134.628 269.027 134.628H369.254C370.995 134.628 372.461 133.162 372.461 131.421C372.461 129.681 370.995 128.215 369.163 128.215Z" fill="#E8E8F7"/>
<path d="M236.961 185.841H204.713C203.888 185.841 203.247 186.482 203.247 187.307V219.739C203.247 220.563 203.888 221.205 204.713 221.205H236.961C237.786 221.205 238.427 220.563 238.427 219.739V187.307C238.427 186.482 237.786 185.841 236.961 185.841Z" fill="#E8E8F7"/>
<path d="M385.562 214.792H269.027C267.286 214.792 265.82 216.257 265.82 217.998C265.82 219.83 267.286 221.205 269.027 221.205H385.562C387.303 221.205 388.768 219.739 388.768 217.998C388.768 216.166 387.303 214.792 385.562 214.792Z" fill="#E8E8F7"/>
<path d="M352.855 200.316H269.027C267.286 200.316 265.82 201.782 265.82 203.523C265.82 205.355 267.286 206.729 269.027 206.729H352.855C354.596 206.729 356.062 205.263 356.062 203.523C356.062 201.782 354.596 200.316 352.855 200.316Z" fill="#E8E8F7"/>
<path d="M369.163 185.841H269.027C267.286 185.841 265.82 187.307 265.82 189.047C265.82 190.88 267.286 192.254 269.027 192.254H369.254C370.995 192.254 372.461 190.788 372.461 189.047C372.461 187.307 370.995 185.841 369.163 185.841Z" fill="#E8E8F7"/>
<path d="M152.217 48.7842C154.049 48.7842 155.515 47.3183 155.515 45.486C155.515 43.6537 154.049 42.1877 152.217 42.1877C150.385 42.1877 148.919 43.6537 148.919 45.486C149.01 47.3183 150.476 48.7842 152.217 48.7842Z" fill="#FF7A82"/>
<path d="M164.494 48.7842C166.326 48.7842 167.792 47.3183 167.792 45.486C167.792 43.6537 166.326 42.1877 164.494 42.1877C162.661 42.1877 161.195 43.6537 161.195 45.486C161.195 47.3183 162.661 48.7842 164.494 48.7842Z" fill="#FDB62F"/>
<path d="M176.678 48.7842C178.511 48.7842 179.977 47.3183 179.977 45.486C179.977 43.6537 178.511 42.1877 176.678 42.1877C174.846 42.1877 173.38 43.6537 173.38 45.486C173.38 47.3183 174.846 48.7842 176.678 48.7842Z" fill="#64A7B0"/>
<path d="M588.857 71.4132C589.04 71.4132 589.132 71.4132 589.315 71.4132C589.498 71.4132 589.59 71.5048 589.681 71.5964C589.773 71.688 589.865 71.7795 589.956 71.9628C590.048 72.146 590.048 72.2376 590.048 72.4208C590.048 72.6041 590.048 72.6957 589.956 72.8789C589.315 75.0777 588.399 77.0933 587.299 79.1088C587.116 79.3837 586.933 79.567 586.658 79.6586C586.383 79.7502 586.108 79.7501 585.833 79.5669C585.559 79.3837 585.375 79.2005 585.284 78.9256C585.192 78.6508 585.284 78.376 585.375 78.1012C586.383 76.2689 587.208 74.3449 587.757 72.3294C587.849 72.1461 587.941 71.9628 588.124 71.7796C588.399 71.5047 588.673 71.4132 588.857 71.4132Z" fill="#110580"/>
<path d="M407.091 25.6055C407.183 25.6055 407.366 25.6055 407.458 25.6055L409.015 25.9718C412.68 26.888 416.436 27.8041 420.467 28.9035C420.651 28.9035 420.742 28.9953 420.834 29.0869C420.925 29.1785 421.017 29.27 421.109 29.4533C421.2 29.5449 421.2 29.7281 421.2 29.9113C421.2 30.0946 421.2 30.1862 421.109 30.3694C421.109 30.5526 421.017 30.6442 420.925 30.7358C420.834 30.8274 420.742 30.9191 420.559 31.0107C420.376 31.1023 420.284 31.1024 420.101 31.1024C419.918 31.1024 419.826 31.1023 419.643 31.0107C415.703 29.9113 411.947 28.9952 408.282 28.079L406.725 27.7127C406.45 27.621 406.175 27.4378 406.084 27.2546C405.9 26.9797 405.9 26.7048 405.992 26.4299C406.084 26.1551 406.175 25.9719 406.359 25.7886C406.633 25.697 406.817 25.6055 407.091 25.6055ZM432.835 33.0262C433.019 33.0262 433.202 33.0262 433.385 33.0262C437.599 34.5836 441.722 36.416 445.753 38.6148C445.845 38.7064 446.028 38.7981 446.12 38.8897C446.211 38.9813 446.303 39.1645 446.303 39.2561C446.303 39.4393 446.394 39.5309 446.303 39.7142C446.303 39.8974 446.211 39.989 446.211 40.1722C446.12 40.2638 446.028 40.4472 445.936 40.5388C445.845 40.6304 445.662 40.722 445.57 40.722C445.387 40.722 445.295 40.8136 445.112 40.722C444.929 40.722 444.837 40.6303 444.745 40.6303C440.806 38.5232 436.775 36.6909 432.652 35.2251C432.377 35.1335 432.194 34.9502 432.102 34.767C432.011 34.5838 431.919 34.3089 431.919 34.034C431.919 33.7592 432.102 33.576 432.194 33.3928C432.377 33.1179 432.561 33.0262 432.835 33.0262ZM456.289 45.8524C456.472 45.8524 456.564 45.8524 456.747 45.8524C456.93 45.8524 457.022 45.9441 457.114 46.0358C460.687 48.8758 463.985 52.0823 466.825 55.5637C466.916 55.6553 467.008 55.8384 467.008 55.9301C467.008 56.1133 467.1 56.2049 467.008 56.3881C467.008 56.5714 466.916 56.663 466.916 56.8462C466.825 56.9378 466.733 57.1212 466.642 57.2128C466.458 57.396 466.092 57.4877 465.817 57.4877C465.542 57.4877 465.267 57.3043 465.084 57.1211C462.244 53.7313 459.129 50.6165 455.648 47.8681C455.556 47.7765 455.464 47.6847 455.373 47.5015C455.281 47.4099 455.281 47.2266 455.281 47.0434C455.281 46.8602 455.281 46.7686 455.281 46.5853C455.281 46.4021 455.373 46.3106 455.464 46.2189C455.739 46.0357 456.014 45.944 456.289 45.8524ZM473.146 66.4658C473.33 66.4658 473.604 66.4659 473.788 66.5575C473.971 66.6492 474.154 66.8324 474.246 67.0156C476.353 71.0467 478.002 75.3526 479.193 79.7501C479.285 79.9333 479.284 80.0249 479.284 80.2082C479.284 80.3914 479.193 80.483 479.193 80.6663C479.101 80.8495 479.01 80.9412 478.918 81.0328C478.826 81.1245 478.643 81.216 478.46 81.216C478.277 81.216 478.185 81.3077 478.002 81.216C477.819 81.216 477.727 81.1245 477.544 81.0328C477.452 80.9412 477.269 80.8495 477.177 80.6663C477.086 80.5746 476.994 80.3914 476.994 80.2082C475.895 75.9022 474.246 71.7795 472.23 67.8401C472.139 67.7485 472.139 67.5652 472.139 67.382C472.139 67.1988 472.139 67.1072 472.23 66.9239C472.23 66.7407 472.322 66.6492 472.413 66.5575C472.505 66.4659 472.597 66.3743 472.78 66.2827C472.871 66.5575 473.055 66.4658 473.146 66.4658ZM467.649 81.4909C470.123 81.2161 472.597 81.0327 475.07 81.1243C475.345 81.1243 475.62 81.2161 475.803 81.4909C475.986 81.6742 476.078 81.9489 476.078 82.3154C476.078 82.4986 476.078 82.5902 475.986 82.7735C475.895 82.8651 475.803 83.0484 475.711 83.14C475.62 83.2317 475.528 83.3231 475.345 83.4147C475.253 83.5063 475.07 83.5064 474.887 83.5064C472.505 83.5064 470.123 83.5979 467.741 83.8728C465.817 84.1476 463.801 84.5143 461.878 84.9724C461.603 85.064 461.328 84.9723 461.053 84.8807C460.778 84.6974 460.595 84.5142 460.595 84.2394C460.503 84.0562 460.503 83.9645 460.503 83.7813C460.503 83.5981 460.595 83.5065 460.687 83.3232C460.778 83.2316 460.87 83.0483 460.961 82.9566C461.053 82.865 461.236 82.7735 461.328 82.7735C463.527 82.1321 465.542 81.6742 467.649 81.4909ZM488.171 82.9566C488.263 82.9566 488.446 82.9566 488.538 82.9566C492.935 83.9644 497.241 85.2471 501.547 86.713C501.822 86.8046 502.005 86.9879 502.097 87.2627C502.188 87.5376 502.188 87.8124 502.097 88.0872C502.005 88.362 501.822 88.5452 501.547 88.7285C501.272 88.9117 500.997 88.9118 500.723 88.8202C496.508 87.3543 492.294 86.1633 487.988 85.1555C487.713 85.0639 487.53 84.9723 487.347 84.6975C487.163 84.5142 487.072 84.2393 487.163 83.9645C487.163 83.6897 487.255 83.4148 487.438 83.2315C487.713 83.0483 487.896 82.9566 488.171 82.9566ZM449.509 88.1789C449.693 88.1789 449.876 88.1788 450.059 88.2704C450.242 88.362 450.426 88.4538 450.517 88.637C450.609 88.7286 450.7 88.9117 450.7 89.0034C450.7 89.1866 450.7 89.2782 450.7 89.4614C450.7 89.6447 450.609 89.7362 450.517 89.8278C450.426 89.9194 450.334 90.1027 450.242 90.1027C448.41 91.4769 446.669 93.0345 445.204 94.7752C443.921 96.3326 442.822 97.9817 441.997 99.814C441.814 100.089 441.63 100.272 441.356 100.272C441.081 100.364 440.806 100.364 440.531 100.18C440.256 100.089 440.073 99.9057 439.981 99.6308C439.89 99.356 439.89 99.081 439.981 98.8062C440.898 96.7906 442.089 94.8667 443.463 93.1261C445.02 91.2021 446.853 89.553 448.868 88.0872C449.143 88.1788 449.326 88.1789 449.509 88.1789ZM479.743 92.4848H479.926C480.109 92.4848 480.201 92.4847 480.384 92.5763C480.476 92.6679 480.659 92.6679 480.75 92.8512C480.842 92.9428 480.934 93.0345 481.025 93.2178C481.117 93.3094 481.117 93.4926 481.117 93.6758C481.117 98.3482 480.384 102.929 478.918 107.326C478.826 107.601 478.643 107.784 478.368 107.968C478.093 108.059 477.819 108.151 477.544 108.059C477.269 107.968 477.086 107.784 476.902 107.51C476.811 107.235 476.719 106.96 476.902 106.685C478.368 102.562 479.01 98.1649 479.01 93.7673C479.01 93.4925 479.101 93.2177 479.284 92.9429C479.193 92.5764 479.468 92.3932 479.743 92.4848ZM513.732 91.0189C513.915 91.0189 514.007 91.0189 514.19 91.0189C515.656 91.5685 517.213 92.0266 518.679 92.3931C521.611 93.3092 524.268 94.1339 526.925 94.7752C527.108 94.7752 527.199 94.8667 527.291 94.9584C527.383 95.05 527.474 95.1416 527.566 95.2333C527.658 95.3249 527.657 95.508 527.749 95.5996C527.749 95.7829 527.749 95.8745 527.749 96.0577C527.749 96.2409 527.658 96.3327 527.566 96.4243C527.474 96.5159 527.383 96.6074 527.291 96.699C527.199 96.7906 527.016 96.7908 526.925 96.8824C526.741 96.8824 526.65 96.8824 526.466 96.8824C523.81 96.2411 520.97 95.5081 518.038 94.5003C516.572 94.0422 515.015 93.5841 513.549 93.1261C513.274 93.0344 513.091 92.8512 512.999 92.668C512.816 92.4847 512.816 92.2099 512.816 91.935C512.816 91.6602 512.999 91.477 513.091 91.2937C513.274 91.1105 513.457 91.0189 513.732 91.0189ZM577.68 87.6291C577.863 87.6291 578.046 87.6292 578.229 87.7208C578.412 87.8124 578.596 87.904 578.687 88.0872C578.779 88.1788 578.871 88.362 578.871 88.4536C578.871 88.6368 578.962 88.7284 578.871 88.9116C578.871 89.0949 578.779 89.1865 578.779 89.3697C578.687 89.4613 578.596 89.6447 578.504 89.7363C574.931 92.668 570.9 94.9584 566.686 96.6075C566.411 96.6991 566.136 96.6991 565.861 96.6075C565.586 96.5159 565.403 96.2411 565.311 95.9662C565.22 95.6914 565.22 95.4164 565.311 95.1415C565.403 94.8667 565.678 94.6836 565.953 94.592C569.984 93.0345 573.832 90.8357 577.221 88.0872C577.313 87.7207 577.496 87.6291 577.68 87.6291ZM539.659 97.3405H539.934C544.332 97.7985 548.729 97.89 553.127 97.4319C553.401 97.4319 553.676 97.5236 553.951 97.7068C554.134 97.8901 554.318 98.165 554.318 98.4398C554.318 98.7146 554.226 98.9894 554.043 99.2643C553.859 99.5391 553.585 99.6308 553.31 99.6308C548.821 100.089 544.24 99.9972 539.751 99.5391C539.476 99.5391 539.201 99.356 539.018 99.1728C538.835 98.9895 538.743 98.6229 538.743 98.3481C538.743 98.0732 538.926 97.89 539.018 97.6151C539.293 97.4319 539.476 97.3405 539.659 97.3405ZM438.974 111.449C439.248 111.449 439.523 111.449 439.798 111.632C439.981 111.816 440.165 112.09 440.256 112.365C440.714 115.847 442.547 118.962 445.204 121.252C445.753 121.71 446.303 122.077 446.944 122.443C447.219 122.626 447.402 122.809 447.494 123.084C447.586 123.359 447.494 123.634 447.402 123.909C447.219 124.184 447.036 124.367 446.761 124.459C446.486 124.55 446.211 124.459 445.936 124.367C445.203 123.909 444.562 123.451 443.921 122.993C440.898 120.428 438.882 116.763 438.332 112.732C438.332 112.457 438.332 112.182 438.516 111.907C438.424 111.632 438.699 111.541 438.974 111.449ZM470.581 116.946C470.764 116.946 470.947 116.946 471.039 116.946C471.131 116.946 471.314 117.129 471.497 117.221C471.589 117.313 471.68 117.404 471.772 117.587C471.864 117.679 471.864 117.862 471.864 118.045C471.864 118.229 471.864 118.32 471.772 118.504C471.68 118.595 471.589 118.778 471.497 118.87C468.199 122.168 464.076 124.55 459.496 125.833C459.312 125.833 459.221 125.833 459.037 125.833C458.854 125.833 458.763 125.741 458.671 125.65C458.579 125.558 458.396 125.466 458.396 125.375C458.305 125.283 458.213 125.1 458.213 125.008C458.213 124.825 458.213 124.733 458.213 124.55C458.213 124.367 458.305 124.275 458.396 124.184C458.488 124.092 458.579 123.909 458.671 123.817C458.763 123.726 458.946 123.634 459.037 123.634C463.16 122.443 467.008 120.244 470.031 117.221C470.123 117.129 470.398 117.038 470.581 116.946Z" fill="#110580"/>
<path d="M388.219 19.0092C388.494 19.0092 388.768 19.0091 388.952 19.1924C390.692 20.3834 392.525 21.2995 394.54 21.9408C394.815 22.0325 394.998 22.2156 395.181 22.4904C395.273 22.7652 395.273 23.0402 395.181 23.3151C395.09 23.5899 394.907 23.7731 394.632 23.9563C394.357 24.0479 394.082 24.1396 393.807 23.9563C391.7 23.2234 389.593 22.2156 387.761 20.933C387.577 20.8414 387.486 20.6583 387.394 20.3834C387.303 20.2002 387.303 19.9252 387.394 19.7419C387.486 19.5587 387.577 19.3756 387.761 19.1924C387.852 19.1924 388.035 19.1008 388.219 19.0092Z" fill="#110580"/>
<path d="M385.837 208.837C410.298 208.837 430.179 188.864 430.179 164.22C430.179 139.575 410.39 119.603 385.837 119.603C361.375 119.603 341.495 139.575 341.495 164.22C341.495 188.864 361.375 208.837 385.837 208.837Z" fill="#E8EBFF"/>
<path d="M438.882 183.734C433.66 180.527 426.881 182.176 423.674 187.49C420.467 192.712 422.117 199.583 427.339 202.79L495.134 244.383C500.356 247.59 507.136 245.941 510.342 240.627C513.549 235.405 511.9 228.534 506.678 225.327L438.882 183.734Z" fill="#2B31BA"/>
<path d="M387.394 155.974H342.319L342.136 157.074C341.77 159.273 341.586 161.563 341.586 163.853V165.136H387.394C388.585 165.136 389.776 164.678 390.601 163.762C391.425 162.937 391.975 161.746 391.975 160.555C391.975 159.364 391.517 158.173 390.601 157.349C389.776 156.432 388.585 155.974 387.394 155.974Z" fill="#CFCFEB"/>
<path d="M358.81 145.897C358.81 144.706 358.352 143.515 357.436 142.69C356.611 141.866 355.42 141.316 354.229 141.316H347.633L347.266 141.957C346.075 144.156 345.068 146.355 344.243 148.737L343.602 150.477H354.229C355.42 150.477 356.611 150.019 357.436 149.103C358.352 148.279 358.81 147.088 358.81 145.897Z" fill="#CFCFEB"/>
<path d="M375.392 131.238C375.392 130.047 374.934 128.856 374.018 128.032C373.194 127.207 372.003 126.657 370.812 126.657H360.826L360.459 126.932C357.802 128.856 355.329 131.146 353.038 133.62L351.206 135.727H370.812C371.453 135.727 372.003 135.636 372.552 135.361C373.102 135.178 373.652 134.811 374.018 134.353C374.476 133.895 374.751 133.437 375.026 132.887C375.209 132.429 375.392 131.88 375.392 131.238Z" fill="#CFCFEB"/>
<path d="M370.812 185.016H346.259L347.358 186.94C348.641 189.322 350.198 191.613 351.847 193.72L352.214 194.178H370.812C372.003 194.178 373.194 193.72 374.018 192.804C374.843 191.979 375.393 190.788 375.393 189.597C375.393 188.406 374.935 187.215 374.018 186.391C373.194 185.475 372.003 185.016 370.812 185.016Z" fill="#CFCFEB"/>
<path d="M339.204 135.636C333.616 144.889 330.776 155.7 331.234 166.51C331.692 177.413 335.356 187.857 341.678 196.652C348.091 205.447 356.886 212.135 366.964 215.891C377.133 219.647 388.127 220.288 398.663 217.723C409.198 215.158 418.635 209.57 425.964 201.507C433.293 193.537 438.057 183.551 439.798 172.74C441.447 162.021 439.89 151.027 435.401 141.133C430.82 131.238 423.491 122.993 414.329 117.313C408.191 113.556 401.411 111.083 394.357 109.892C387.302 108.792 380.065 109.067 373.102 110.808C366.139 112.549 359.543 115.572 353.771 119.786C347.816 124.092 342.96 129.406 339.204 135.636ZM423.674 187.398C419.093 194.911 412.405 200.958 404.526 204.622C396.556 208.287 387.669 209.57 379.057 208.195C370.445 206.821 362.383 202.882 355.878 196.927C349.465 190.972 344.884 183.184 342.869 174.664C340.762 166.052 341.311 157.074 344.335 148.828C347.358 140.583 352.763 133.345 359.818 128.123C366.872 122.901 375.301 119.969 384.096 119.603C392.891 119.236 401.503 121.527 409.015 126.108C419.001 132.246 426.239 142.141 428.987 153.684C431.644 165.228 429.72 177.321 423.674 187.398Z" fill="#2B31BA"/>
<path d="M403.793 138.018C408.283 142.14 409.657 147.454 408.649 151.302C407.55 155.516 414.238 154.6 415.337 150.752C416.253 147.546 416.161 144.248 415.154 141.041C414.054 137.926 412.039 135.269 409.29 133.345C406.175 131.238 402.602 129.864 398.846 129.314C395.09 128.764 391.334 129.039 387.669 130.139C387.303 130.23 386.936 130.322 386.661 130.597C386.386 130.78 386.112 131.147 385.928 131.421C385.745 131.788 385.654 132.154 385.654 132.521C385.654 132.887 385.745 133.254 385.928 133.62C387.577 135.544 389.593 134.903 394.632 134.903C398.022 134.903 401.228 136.002 403.793 138.018Z" fill="white"/>
</svg>
