<svg width="566" height="394" viewBox="0 0 566 394" fill="none" xmlns="http://www.w3.org/2000/svg">
<path d="M506.836 0.54248H128.636C123.236 0.54248 118.036 2.74248 114.236 6.54248C110.436 10.3425 108.236 15.5424 108.236 20.9424V248.643C108.236 254.043 110.436 259.242 114.236 263.042C118.036 266.842 123.236 269.042 128.636 269.042H256.937V295.643H213.636C212.236 295.643 210.836 296.242 209.836 297.242C208.836 298.242 208.236 299.642 208.236 301.042V304.042C208.236 305.442 208.836 306.842 209.836 307.842C210.836 308.842 212.236 309.442 213.636 309.442H421.937C423.337 309.442 424.736 308.842 425.736 307.842C426.736 306.842 427.336 305.442 427.336 304.042V301.042C427.336 299.642 426.736 298.242 425.736 297.242C424.736 296.242 423.337 295.643 421.937 295.643H378.636V269.042H506.937C512.337 269.042 517.536 266.842 521.336 263.042C525.136 259.242 527.336 254.043 527.336 248.643V20.9424C527.336 15.5424 525.136 10.3425 521.336 6.54248C517.336 2.74248 512.136 0.64248 506.836 0.54248Z" fill="#C5D6E3"/>
<path d="M505.336 13.1426H130.136C125.536 13.1426 121.836 16.8424 121.836 21.4424V237.742C121.836 242.342 125.536 246.042 130.136 246.042H505.336C509.936 246.042 513.636 242.342 513.636 237.742V21.4424C513.636 16.8424 509.936 13.1426 505.336 13.1426Z" fill="#ECF3FE"/>
<path d="M263.136 177.042C263.136 178.542 263.437 179.942 263.937 181.242C264.537 182.542 265.336 183.842 266.336 184.842C267.336 185.842 268.637 186.642 269.937 187.242C271.237 187.842 272.736 188.042 274.136 188.042H364.736C367.636 188.042 370.536 186.842 372.536 184.842C374.636 182.742 375.736 179.942 375.736 177.042V114.542C375.736 114.242 375.636 113.842 375.536 113.542C375.436 113.242 375.237 112.942 374.937 112.742C374.737 112.542 374.436 112.343 374.136 112.143C373.836 112.043 373.536 111.942 373.136 111.942H265.536C265.236 111.942 264.836 112.043 264.536 112.143C264.236 112.243 263.936 112.442 263.736 112.742C263.536 112.942 263.336 113.242 263.136 113.542C263.036 113.842 262.937 114.142 262.937 114.542L263.136 177.042Z" fill="#AAACE3"/>
<path d="M356.137 63.7423L268.137 85.0426C266.737 85.3426 265.336 86.0424 264.236 86.8424C263.036 87.7424 262.036 88.7426 261.336 90.0426C260.536 91.2426 260.036 92.6427 259.836 94.1427C259.636 95.5427 259.636 97.0425 260.036 98.4425L263.036 110.543C263.236 111.243 263.636 111.743 264.236 112.143C264.836 112.543 265.537 112.643 266.137 112.443L370.736 87.1427C371.436 86.9427 371.936 86.5426 372.336 86.0426C372.736 85.4426 372.837 84.8427 372.637 84.1427L369.637 72.0426C369.337 70.6426 368.736 69.2426 367.836 68.0426C366.936 66.8426 365.937 65.8426 364.637 65.0426C363.437 64.2426 362.036 63.7426 360.536 63.5426C359.036 63.3426 357.537 63.3423 356.137 63.7423Z" fill="#2B31BA"/>
<path d="M375.836 111.942H263.036V138.143H375.836V111.942Z" fill="#5458C2"/>
<path fill-rule="evenodd" clip-rule="evenodd" d="M331.736 161.942L320.937 155.742L310.136 149.542V174.442L320.937 168.242L331.736 161.942Z" fill="#FF5856"/>
<path d="M341.937 138.143H348.836L363.437 111.942H356.437L341.937 138.143Z" fill="#110580"/>
<path d="M324.836 138.143H331.836L346.437 111.942H339.437L324.836 138.143Z" fill="#110580"/>
<path d="M307.636 138.143H314.536L329.136 111.942H322.236L307.636 138.143Z" fill="#110580"/>
<path d="M290.437 138.143H297.437L312.036 111.942H305.136L290.437 138.143Z" fill="#110580"/>
<path d="M273.236 138.143H280.236L294.836 111.942H287.937L273.236 138.143Z" fill="#110580"/>
<path d="M333.937 69.1426L340.636 67.5425L361.036 89.5425L354.336 91.1426L333.937 69.1426Z" fill="#110580"/>
<path d="M317.236 73.1426L323.937 71.5425L344.336 93.5425L337.536 95.1426L317.236 73.1426Z" fill="#110580"/>
<path d="M300.536 77.1426L307.336 75.5425L327.736 97.5425L320.937 99.1426L300.536 77.1426Z" fill="#110580"/>
<path d="M283.836 81.2422L290.636 79.6426L311.036 101.643L304.236 103.242L283.836 81.2422Z" fill="#110580"/>
<path d="M267.136 85.2422L273.937 83.6426L294.336 105.643L287.536 107.242L267.136 85.2422Z" fill="#110580"/>
<path d="M33.6365 342.043C32.6365 340.543 31.2365 339.243 29.6365 338.443C28.0365 337.643 26.1365 337.242 24.3365 337.242C24.5365 335.942 24.5365 334.542 24.1365 333.242C23.7365 331.942 23.0365 330.742 22.1365 329.842C20.6365 328.342 18.6364 327.543 16.5364 327.443C14.4364 327.343 12.4365 328.043 10.8365 329.443C9.2365 330.743 8.23659 332.642 7.93659 334.742C7.63659 336.842 8.1365 338.943 9.3365 340.643C7.8365 340.543 6.43645 340.943 5.03645 341.543C3.73645 342.243 2.6365 343.243 1.8365 344.543C1.0365 345.743 0.636446 347.242 0.536446 348.742C0.436446 350.242 0.836446 351.643 1.53645 353.043C2.23645 354.343 3.23645 355.442 4.53645 356.242C5.83645 357.042 7.2364 357.443 8.7364 357.543C10.2364 357.543 11.6366 357.243 12.9366 356.543C14.2366 355.843 15.3365 354.843 16.1365 353.543C17.6365 355.843 20.0364 357.543 22.7364 358.043C25.4364 358.643 28.3365 358.143 30.6365 356.543C32.9365 355.043 34.6365 352.643 35.1365 349.943C35.7365 347.143 35.2365 344.343 33.6365 342.043Z" fill="#E69E19"/>
<path d="M83.1365 247.342C101.336 247.342 116.136 232.542 116.136 214.342C116.136 196.142 101.336 181.342 83.1365 181.342C64.9365 181.342 50.1365 196.142 50.1365 214.342C50.1365 232.542 64.9365 247.342 83.1365 247.342Z" fill="#FDB62F"/>
<path d="M119.136 161.542C125.636 161.542 130.836 156.342 130.836 149.842C130.836 143.342 125.636 138.143 119.136 138.143C112.636 138.143 107.436 143.342 107.436 149.842C107.336 156.342 112.636 161.542 119.136 161.542Z" fill="#FDB62F"/>
<path d="M135.636 164.242C141.036 164.242 145.336 159.942 145.336 154.542C145.336 149.142 141.036 144.842 135.636 144.842C130.236 144.842 125.936 149.142 125.936 154.542C125.836 159.942 130.236 164.242 135.636 164.242Z" fill="#FDB62F"/>
<path d="M78.9365 176.643C82.4365 176.643 85.3364 173.842 85.3364 170.242C85.3364 166.742 82.5365 163.842 78.9365 163.842C75.4365 163.842 72.5364 166.642 72.5364 170.242C72.5364 173.842 75.4365 176.643 78.9365 176.643Z" fill="#FDB62F"/>
<path d="M194.136 213.143C199.536 213.143 203.836 208.842 203.836 203.442C203.836 198.042 199.536 193.742 194.136 193.742C188.736 193.742 184.437 198.042 184.437 203.442C184.437 208.742 188.836 213.143 194.136 213.143Z" fill="#FDB62F"/>
<path d="M120.136 253.643C149.236 253.643 172.836 231.142 172.836 203.442C172.836 175.742 149.236 153.242 120.136 153.242C91.0365 153.242 67.4365 175.742 67.4365 203.442C67.5365 231.142 91.0365 253.643 120.136 253.643Z" fill="#FDB62F"/>
<path d="M152.136 254.442C176.236 254.442 195.636 234.942 195.636 210.842C195.636 186.742 176.136 167.242 152.136 167.242C128.136 167.242 108.636 186.742 108.636 210.842C108.536 234.942 128.036 254.442 152.136 254.442Z" fill="#FDB62F"/>
<path d="M99.6365 183.042C110.236 183.042 118.736 174.442 118.736 163.942C118.736 153.342 110.136 144.842 99.6365 144.842C89.0365 144.842 80.5364 153.442 80.5364 163.942C80.5364 174.542 89.1365 183.042 99.6365 183.042Z" fill="#FDB62F"/>
<path d="M154.736 177.942C164.236 177.942 172.036 170.243 172.036 160.643C172.036 151.143 164.336 143.342 154.736 143.342C145.236 143.342 137.437 151.043 137.437 160.643C137.437 170.243 145.236 177.942 154.736 177.942Z" fill="#FDB62F"/>
<path d="M51.0364 204.242C58.6364 204.242 64.8364 198.042 64.8364 190.442C64.8364 182.842 58.6364 176.643 51.0364 176.643C43.4364 176.643 37.2363 182.842 37.2363 190.442C37.2363 198.042 43.4364 204.242 51.0364 204.242Z" fill="#FDB62F"/>
<path d="M173.236 177.442C176.936 177.442 180.036 174.443 180.036 170.643C180.036 166.943 177.036 163.842 173.236 163.842C169.536 163.842 166.437 166.843 166.437 170.643C166.437 174.443 169.436 177.442 173.236 177.442Z" fill="#FDB62F"/>
<path d="M69.3364 198.342C76.9364 198.342 83.1364 192.142 83.1364 184.542C83.1364 176.942 76.9364 170.742 69.3364 170.742C61.7364 170.742 55.5363 176.942 55.5363 184.542C55.4363 192.142 61.6364 198.342 69.3364 198.342Z" fill="#FDB62F"/>
<path d="M182.836 201.242C190.536 201.242 196.736 195.042 196.736 187.342C196.736 179.642 190.536 173.442 182.836 173.442C175.136 173.442 168.937 179.642 168.937 187.342C168.937 195.042 175.236 201.242 182.836 201.242Z" fill="#FDB62F"/>
<path d="M44.9365 218.542C50.2365 218.542 54.5364 214.242 54.5364 208.942C54.5364 203.642 50.2365 199.342 44.9365 199.342C39.6365 199.342 35.3364 203.642 35.3364 208.942C35.3364 214.342 39.6365 218.542 44.9365 218.542Z" fill="#FDB62F"/>
<path d="M67.0364 223.342C67.1364 221.042 66.7364 218.742 65.8364 216.542C65.0364 214.342 63.7365 212.442 62.1365 210.742C60.5365 209.042 58.5365 207.742 56.4365 206.842C54.3365 205.942 52.0365 205.442 49.6365 205.442C47.3365 205.442 45.0364 205.942 42.8364 206.842C40.7364 207.742 38.7365 209.042 37.1365 210.742C35.5365 212.442 34.2365 214.342 33.4365 216.542C32.6365 218.742 32.2363 221.042 32.2363 223.342L55.2363 360.842C55.7363 364.142 57.4364 367.042 60.0364 369.242C62.5364 371.342 65.7364 372.542 69.0364 372.542H81.0364L67.0364 223.342Z" fill="#FF5856"/>
<path d="M188.736 205.942C186.436 205.942 184.236 206.342 182.136 207.242C180.036 208.142 178.136 209.442 176.536 211.042C174.936 212.642 173.636 214.543 172.736 216.643C171.836 218.743 171.437 221.042 171.437 223.242H206.136C206.136 218.642 204.336 214.242 201.036 210.942C197.736 207.842 193.336 205.942 188.736 205.942Z" fill="#FF5856"/>
<path d="M171.336 223.342L157.336 372.542H169.336C172.636 372.542 175.836 371.342 178.336 369.242C180.836 367.142 182.536 364.142 183.136 360.842L206.136 223.342H171.336Z" fill="#FF5856"/>
<path d="M119.136 205.942C114.536 205.942 110.136 207.742 106.836 211.042C103.536 214.342 101.736 218.742 101.736 223.342L105.437 372.542H132.736L136.536 223.342C136.536 218.742 134.737 214.342 131.437 211.042C128.237 207.842 123.736 205.942 119.136 205.942Z" fill="#FF5856"/>
<path d="M84.4365 205.942C79.8365 205.942 75.4365 207.742 72.1365 211.042C68.8365 214.342 67.0364 218.742 67.0364 223.342L81.0364 372.542H105.437L101.736 223.342C101.736 221.042 101.237 218.842 100.437 216.742C99.5365 214.642 98.2365 212.743 96.6365 211.143C95.0365 209.543 93.1364 208.242 91.0364 207.342C88.9364 206.442 86.6365 205.942 84.4365 205.942Z" fill="#EBDBCD"/>
<path d="M171.336 223.342C171.336 218.742 169.536 214.342 166.236 211.042C162.936 207.742 158.537 205.942 153.937 205.942C149.337 205.942 144.936 207.742 141.636 211.042C138.336 214.342 136.536 218.742 136.536 223.342L132.836 372.542H157.336L171.336 223.342Z" fill="#EBDBCD"/>
<path d="M63.3364 268.742H174.136C174.636 268.742 175.136 268.842 175.536 269.042C175.936 269.242 176.336 269.542 176.736 269.842C177.036 270.242 177.337 270.643 177.437 271.143C177.637 271.643 177.636 272.142 177.636 272.542L172.937 320.242C172.837 321.142 172.436 321.942 171.836 322.442C171.236 323.042 170.336 323.342 169.536 323.342H68.1365C67.2365 323.342 66.4364 323.042 65.8364 322.442C65.2364 321.842 64.8363 321.042 64.7363 320.242L60.0364 272.542C60.0364 272.042 60.0363 271.543 60.2363 271.143C60.4363 270.643 60.6365 270.242 60.9365 269.942C61.2365 269.542 61.6365 269.243 62.1365 269.143C62.4365 268.843 62.8364 268.742 63.3364 268.742Z" fill="#F8F1EB"/>
<path d="M69.5365 362.542C67.9365 360.542 65.7364 359.142 63.2364 358.542C60.7364 357.942 58.1364 358.242 55.7364 359.242C53.4364 360.342 51.5365 362.142 50.3365 364.442C49.1365 366.742 48.7364 369.342 49.2364 371.842C48.8364 372.042 48.4365 372.342 48.0365 372.642C46.7365 373.642 45.6366 374.842 44.9366 376.242C44.1366 377.642 43.6365 379.242 43.5365 380.842C43.4365 382.442 43.6366 384.042 44.1366 385.642C44.6366 387.142 45.5366 388.542 46.6366 389.742C47.7366 390.942 49.0365 391.842 50.5365 392.542C52.0365 393.142 53.6364 393.542 55.2364 393.442C56.8364 393.442 58.4366 393.042 59.9366 392.442C61.4366 391.742 62.7364 390.842 63.7364 389.642C65.1364 390.242 66.6366 390.442 68.1366 390.442C69.6366 390.442 71.1365 390.142 72.5365 389.542C73.9365 388.942 75.1364 388.042 76.2364 387.042C77.3364 385.942 78.1366 384.642 78.6366 383.242C79.2366 381.842 79.4366 380.342 79.4366 378.842C79.4366 377.342 79.1365 375.842 78.5365 374.442C77.9365 373.042 77.0365 371.842 76.0365 370.742C74.9365 369.642 73.6364 368.842 72.2364 368.342L72.0365 368.242C71.6365 366.042 70.7365 364.142 69.5365 362.542Z" fill="#FDB62F"/>
<path d="M564.837 357.842C563.737 353.742 561.737 349.942 558.837 346.742L535.837 317.842C531.037 312.542 525.236 308.242 518.736 305.342C512.236 302.442 505.136 300.942 498.036 300.942H427.137C420.037 300.942 412.937 302.442 406.437 305.342C399.937 308.242 394.137 312.442 389.337 317.842L366.337 346.742C363.437 349.942 361.336 353.742 360.236 357.842C358.336 365.442 357.837 376.642 369.637 382.342C384.737 389.642 410.537 376.542 423.337 367.742C427.737 364.742 433.037 363.142 438.337 363.242H486.736C492.136 363.242 497.336 363.442 501.736 366.342C514.536 375.042 540.337 389.642 555.437 382.342C567.137 376.642 566.737 365.342 564.837 357.842Z" fill="#5F65E8"/>
<path d="M493.036 311.643C496.436 311.643 499.136 310.642 499.136 309.342C499.136 308.042 496.436 307.042 493.036 307.042C489.636 307.042 486.937 308.042 486.937 309.342C486.937 310.642 489.636 311.643 493.036 311.643Z" fill="#AAACE3"/>
<path d="M493.036 311.643C489.636 311.643 486.937 310.642 486.937 309.342V311.242C486.937 312.542 489.636 313.542 493.036 313.542C496.336 313.542 499.136 312.542 499.136 311.242V309.342C499.136 310.642 496.436 311.643 493.036 311.643Z" fill="#868AE0"/>
<path d="M517.636 311.643C521.036 311.643 523.736 310.642 523.736 309.342C523.736 308.042 521.036 307.042 517.636 307.042C514.236 307.042 511.536 308.042 511.536 309.342C511.536 310.642 514.236 311.643 517.636 311.643Z" fill="#AAACE3"/>
<path d="M517.636 311.643C514.236 311.643 511.536 310.642 511.536 309.342V311.242C511.536 312.542 514.236 313.542 517.636 313.542C520.936 313.542 523.736 312.542 523.736 311.242V309.342C523.736 310.642 521.036 311.643 517.636 311.643Z" fill="#868AE0"/>
<path d="M505.336 306.442C508.736 306.442 511.437 305.443 511.437 304.143C511.437 302.843 508.736 301.842 505.336 301.842C501.936 301.842 499.236 302.843 499.236 304.143C499.236 305.343 501.936 306.442 505.336 306.442Z" fill="#AAACE3"/>
<path d="M505.336 306.442C501.936 306.442 499.236 305.443 499.236 304.143V306.042C499.236 307.342 501.936 308.342 505.336 308.342C508.736 308.342 511.437 307.342 511.437 306.042V304.143C511.437 305.343 508.736 306.442 505.336 306.442Z" fill="#868AE0"/>
<path d="M505.336 317.442C508.736 317.442 511.437 316.443 511.437 315.143C511.437 313.843 508.736 312.842 505.336 312.842C501.936 312.842 499.236 313.843 499.236 315.143C499.236 316.343 501.936 317.442 505.336 317.442Z" fill="#AAACE3"/>
<path d="M505.336 317.442C501.936 317.442 499.236 316.443 499.236 315.143V317.042C499.236 318.342 501.936 319.342 505.336 319.342C508.736 319.342 511.437 318.342 511.437 317.042V315.143C511.437 316.343 508.736 317.442 505.336 317.442Z" fill="#868AE0"/>
<path d="M424.236 311.742C430.536 311.742 435.636 309.742 435.636 307.342C435.636 304.942 430.536 302.942 424.236 302.942C417.936 302.942 412.836 304.942 412.836 307.342C412.836 309.742 417.936 311.742 424.236 311.742Z" fill="#2B31BA"/>
<path d="M424.236 311.742C417.936 311.742 412.836 309.742 412.836 307.342V310.942C412.836 313.342 417.936 315.342 424.236 315.342C430.536 315.342 435.636 313.342 435.636 310.942V307.342C435.636 309.742 430.536 311.742 424.236 311.742Z" fill="#110580"/>
<path d="M483.736 328.442C490.036 328.442 495.136 326.442 495.136 324.042C495.136 321.642 490.036 319.643 483.736 319.643C477.436 319.643 472.336 321.642 472.336 324.042C472.336 326.442 477.436 328.442 483.736 328.442Z" fill="#2B31BA"/>
<path d="M483.736 328.442C477.436 328.442 472.336 326.442 472.336 324.042V327.643C472.336 330.043 477.436 332.042 483.736 332.042C490.036 332.042 495.136 330.043 495.136 327.643V324.042C495.136 326.442 490.036 328.442 483.736 328.442Z" fill="#110580"/>
<path d="M453.136 310.442C454.736 310.442 456.136 309.942 456.136 309.242C456.136 308.642 454.836 308.143 453.136 308.143C451.536 308.143 450.136 308.642 450.136 309.242C450.136 309.942 451.436 310.442 453.136 310.442Z" fill="#AAACE3"/>
<path d="M453.136 310.442C451.436 310.442 450.136 309.942 450.136 309.242V310.242C450.136 310.842 451.436 311.442 453.136 311.442C454.836 311.442 456.136 310.942 456.136 310.242V309.242C456.036 309.942 454.736 310.442 453.136 310.442Z" fill="#868AE0"/>
<path d="M472.136 310.442C473.736 310.442 475.136 309.942 475.136 309.242C475.136 308.642 473.836 308.143 472.136 308.143C470.436 308.143 469.136 308.642 469.136 309.242C469.136 309.942 470.436 310.442 472.136 310.442Z" fill="#AAACE3"/>
<path d="M472.136 310.442C470.436 310.442 469.136 309.942 469.136 309.242V310.242C469.136 310.842 470.436 311.442 472.136 311.442C473.836 311.442 475.136 310.942 475.136 310.242V309.242C475.036 309.942 473.736 310.442 472.136 310.442Z" fill="#868AE0"/>
<path d="M454.636 325.143H448.536C447.736 325.143 447.036 324.842 447.036 324.542V322.042C447.036 321.742 446.336 321.442 445.536 321.442H439.437C438.637 321.442 437.937 321.742 437.937 322.042V324.542C437.937 324.842 437.237 325.143 436.437 325.143H430.336C429.536 325.143 428.836 325.442 428.836 325.742V328.942C428.836 329.242 429.536 329.542 430.336 329.542H436.437C437.237 329.542 437.937 329.843 437.937 330.143V332.643C437.937 332.943 438.637 333.242 439.437 333.242H445.536C446.336 333.242 447.036 332.943 447.036 332.643V330.143C447.036 329.843 447.736 329.542 448.536 329.542H454.636C455.436 329.542 456.136 329.242 456.136 328.942V325.742C456.036 325.442 455.436 325.143 454.636 325.143Z" fill="#868AE0"/>
<path d="M454.636 322.242H448.536C447.736 322.242 447.036 321.943 447.036 321.643V319.143C447.036 318.843 446.336 318.542 445.536 318.542H439.437C438.637 318.542 437.937 318.843 437.937 319.143V321.643C437.937 321.943 437.237 322.242 436.437 322.242H430.336C429.536 322.242 428.836 322.542 428.836 322.842V326.042C428.836 326.342 429.536 326.643 430.336 326.643H436.437C437.237 326.643 437.937 326.942 437.937 327.242V329.742C437.937 330.042 438.637 330.342 439.437 330.342H445.536C446.336 330.342 447.036 330.042 447.036 329.742V327.242C447.036 326.942 447.736 326.643 448.536 326.643H454.636C455.436 326.643 456.136 326.342 456.136 326.042V322.842C456.036 322.442 455.436 322.242 454.636 322.242Z" fill="#AAACE3"/>
</svg>
