<svg width="302" height="123" viewBox="0 0 302 123" fill="none" xmlns="http://www.w3.org/2000/svg">
<path d="M158.986 57.2055V105.999H147.193V57.2055H158.986ZM178.04 85.1284V105.999H166.39V69.4039H177.469V76.1225H177.874C178.684 73.883 180.066 72.1279 182.019 70.8572C183.973 69.5707 186.3 68.9274 189 68.9274C191.573 68.9274 193.805 69.5072 195.695 70.6666C197.601 71.8102 199.078 73.4144 200.126 75.4793C201.19 77.5282 201.715 79.9266 201.699 82.6744V105.999H190.048V84.9616C190.064 82.9285 189.548 81.3402 188.5 80.1966C187.467 79.053 186.03 78.4812 184.187 78.4812C182.964 78.4812 181.884 78.7512 180.947 79.2913C180.026 79.8154 179.311 80.5699 178.803 81.5546C178.31 82.5394 178.056 83.7306 178.04 85.1284ZM229.568 69.4039V77.9809H206.481V69.4039H229.568ZM211.318 60.6363H222.968V94.4916C222.968 95.2063 223.08 95.7861 223.302 96.2308C223.54 96.6596 223.882 96.9694 224.326 97.16C224.771 97.3347 225.303 97.422 225.923 97.422C226.367 97.422 226.836 97.3823 227.328 97.3029C227.837 97.2076 228.218 97.1282 228.472 97.0647L230.235 105.475C229.679 105.634 228.893 105.832 227.876 106.07C226.876 106.309 225.676 106.46 224.279 106.523C221.547 106.65 219.204 106.333 217.25 105.57C215.313 104.792 213.828 103.585 212.795 101.949C211.779 100.313 211.286 98.2559 211.318 95.7781V60.6363ZM252.225 106.69C248.398 106.69 245.094 105.935 242.314 104.427C239.551 102.902 237.422 100.734 235.929 97.9224C234.452 95.0951 233.713 91.7358 233.713 87.8444C233.713 84.0642 234.46 80.7605 235.953 77.9332C237.446 75.0901 239.551 72.8824 242.267 71.3099C244.983 69.7216 248.183 68.9274 251.868 68.9274C254.473 68.9274 256.855 69.3324 259.015 70.1425C261.176 70.9525 263.042 72.1517 264.614 73.74C266.187 75.3284 267.41 77.29 268.283 79.6248C269.157 81.9438 269.594 84.6042 269.594 87.6062V90.5128H237.787V83.7465H258.753C258.738 82.5076 258.444 81.4037 257.872 80.4349C257.3 79.466 256.514 78.7115 255.513 78.1715C254.528 77.6156 253.393 77.3376 252.106 77.3376C250.804 77.3376 249.636 77.6315 248.604 78.2191C247.572 78.7909 246.754 79.5772 246.15 80.5778C245.546 81.5626 245.229 82.6823 245.197 83.9371V90.8225C245.197 92.3156 245.491 93.6259 246.079 94.7536C246.666 95.8655 247.5 96.7311 248.58 97.3506C249.66 97.97 250.947 98.2797 252.44 98.2797C253.472 98.2797 254.409 98.1368 255.251 97.8509C256.093 97.565 256.816 97.1441 257.419 96.5882C258.023 96.0323 258.475 95.3493 258.777 94.5392L269.475 94.8489C269.03 97.2473 268.053 99.336 266.544 101.115C265.051 102.878 263.09 104.252 260.659 105.237C258.229 106.206 255.418 106.69 252.225 106.69ZM275.544 105.999V69.4039H286.861V76.0749H287.242C287.909 73.6606 288.997 71.8658 290.506 70.6905C292.015 69.4992 293.77 68.9036 295.771 68.9036C296.311 68.9036 296.867 68.9433 297.439 69.0227C298.011 69.0862 298.543 69.1895 299.035 69.3324V79.458C298.48 79.2674 297.749 79.1165 296.844 79.0054C295.954 78.8942 295.16 78.8386 294.461 78.8386C293.079 78.8386 291.832 79.1483 290.721 79.7678C289.625 80.3713 288.759 81.2211 288.124 82.317C287.504 83.3971 287.194 84.6678 287.194 86.129V105.999H275.544Z" fill="#2563EB"/>
<circle cx="152.818" cy="44.726" r="7.45456" fill="#2563EB"/>
<rect width="86.6774" height="86.6774" rx="14.9091" transform="matrix(-0.412615 -0.910905 -0.910905 0.412615 115.606 78.9541)" fill="#D0DEFF"/>
<path d="M-6.51698e-07 47.5677C-6.51698e-07 39.3336 6.67504 32.6586 14.9091 32.6586L74.5456 32.6586C82.7797 32.6586 89.4547 39.3336 89.4547 47.5677L89.4547 107.204C89.4547 115.438 82.7797 122.113 74.5456 122.113L14.9091 122.113C6.67502 122.113 -6.51698e-07 115.438 -6.51698e-07 107.204L-6.51698e-07 47.5677Z" fill="#2563EB"/>
</svg>
