<svg width="2473" height="1009" viewBox="0 0 2473 1009" fill="none" xmlns="http://www.w3.org/2000/svg">
<path d="M1302.19 468.931V868.546H1205.61V468.931H1302.19ZM1458.24 697.617V868.546H1362.83V568.835H1453.56V623.86H1456.88C1463.51 605.518 1474.83 591.144 1490.83 580.738C1506.83 570.201 1525.89 564.933 1548 564.933C1569.08 564.933 1587.35 569.681 1602.83 579.177C1618.44 588.543 1630.54 601.681 1639.12 618.592C1647.84 635.372 1652.13 655.015 1652 677.519V868.546H1556.59V696.251C1556.72 679.601 1552.49 666.592 1543.9 657.226C1535.45 647.86 1523.68 643.177 1508.59 643.177C1498.57 643.177 1489.72 645.389 1482.05 649.812C1474.51 654.104 1468.65 660.283 1464.49 668.348C1460.46 676.414 1458.37 686.17 1458.24 697.617ZM1880.25 568.835V639.08H1691.17V568.835H1880.25ZM1730.78 497.029H1826.2V774.301C1826.2 780.155 1827.11 784.903 1828.93 788.545C1830.88 792.057 1833.68 794.594 1837.32 796.155C1840.96 797.586 1845.32 798.301 1850.4 798.301C1854.04 798.301 1857.88 797.976 1861.91 797.326C1866.07 796.545 1869.19 795.895 1871.27 795.374L1885.71 864.253C1881.16 865.554 1874.72 867.18 1866.4 869.131C1858.2 871.083 1848.38 872.318 1836.93 872.839C1814.56 873.879 1795.37 871.278 1779.37 865.034C1763.5 858.66 1751.34 848.773 1742.88 835.375C1734.56 821.976 1730.52 805.131 1730.78 784.838V497.029ZM2065.81 874.205C2034.46 874.205 2007.41 868.026 1984.64 855.668C1962.01 843.18 1944.58 825.423 1932.35 802.399C1920.25 779.244 1914.2 751.731 1914.2 719.861C1914.2 688.901 1920.32 661.844 1932.54 638.689C1944.77 615.405 1962.01 597.323 1984.25 584.445C2006.5 571.437 2032.71 564.933 2062.89 564.933C2084.22 564.933 2103.73 568.25 2121.42 574.884C2139.11 581.518 2154.4 591.339 2167.28 604.348C2180.16 617.356 2190.17 633.421 2197.33 652.543C2204.48 671.535 2208.06 693.324 2208.06 717.91V741.715H1947.57V686.3H2119.28C2119.15 676.153 2116.74 667.113 2112.06 659.178C2107.37 651.242 2100.94 645.064 2092.74 640.641C2084.67 636.088 2075.37 633.811 2064.84 633.811C2054.17 633.811 2044.61 636.218 2036.15 641.031C2027.7 645.714 2021 652.153 2016.06 660.348C2011.11 668.413 2008.51 677.584 2008.25 687.861V744.252C2008.25 756.48 2010.66 767.211 2015.47 776.447C2020.28 785.553 2027.11 792.643 2035.96 797.716C2044.8 802.789 2055.34 805.326 2067.57 805.326C2076.02 805.326 2083.7 804.155 2090.59 801.813C2097.49 799.472 2103.41 796.025 2108.35 791.472C2113.29 786.919 2117 781.325 2119.47 774.691L2207.08 777.228C2203.44 796.87 2195.44 813.976 2183.08 828.545C2170.85 842.985 2154.79 854.237 2134.89 862.302C2114.98 870.237 2091.96 874.205 2065.81 874.205ZM2256.79 868.546V568.835H2349.47V623.47H2352.6C2358.06 603.697 2366.97 588.998 2379.33 579.372C2391.69 569.615 2406.06 564.737 2422.45 564.737C2426.87 564.737 2431.43 565.063 2436.11 565.713C2440.79 566.233 2445.15 567.079 2449.18 568.25V651.177C2444.63 649.616 2438.65 648.381 2431.23 647.47C2423.95 646.56 2417.44 646.104 2411.72 646.104C2400.4 646.104 2390.19 648.641 2381.08 653.714C2372.11 658.657 2365.02 665.617 2359.82 674.592C2354.74 683.438 2352.21 693.845 2352.21 705.812V868.546H2256.79Z" fill="white"/>
<circle cx="1251.68" cy="367.072" r="61.0522" fill="white"/>
<rect width="709.88" height="709.88" rx="122.104" transform="matrix(-0.412615 -0.910905 -0.910905 0.412615 946.909 647.4)" fill="#2563EB" fill-opacity="0.3"/>
<path d="M0.110346 390.345C0.110346 322.908 54.7784 268.241 122.215 268.241L610.633 268.241C678.069 268.241 732.737 322.909 732.737 390.345L732.737 878.763C732.737 946.199 678.069 1000.87 610.633 1000.87L122.215 1000.87C54.7783 1000.87 0.110346 946.199 0.110346 878.763L0.110346 390.345Z" fill="#2563EB"/>
</svg>
